<?xml version="1.0" encoding="utf-8"?>
<!-- Generator: Adobe Illustrator 16.0.0, SVG Export Plug-In . SVG Version: 6.00 Build 0)  -->
<!DOCTYPE svg PUBLIC "-//W3C//DTD SVG 1.1//EN" "http://www.w3.org/Graphics/SVG/1.1/DTD/svg11.dtd">
<svg version="1.1" id="Layer_1" xmlns="http://www.w3.org/2000/svg" xmlns:xlink="http://www.w3.org/1999/xlink" x="0px" y="0px"
	 width="70px" height="70px" viewBox="0 0 70 70" enable-background="new 0 0 70 70" xml:space="preserve">
<g>
	<path fill="#10804F" d="M14.141,43.798c-0.59,0-1.021,0.025-1.45-0.004c-1.267-0.088-2.194-1.014-2.223-2.19
		c-0.03-1.269,0.821-2.233,2.124-2.393c0.232-0.029,0.472-0.03,0.707-0.03c7.503-0.002,15.005-0.004,22.507,0.001
		c1.344,0,2.285,0.567,2.603,1.528c0.473,1.428-0.406,2.834-1.926,3.063c-0.329,0.05-0.664,0.05-1.135,0.082
		c0.123,1.372,0.223,2.704,0.363,4.031c0.429,3.989,0.872,7.979,1.308,11.97c0.028,0.27,0.022,0.542,0.067,0.807
		c0.316,1.863-0.465,2.816-2.396,2.824c-4.157,0.019-8.313,0.006-12.469,0.006c-2.433,0-4.866,0.008-7.3-0.002
		c-2.074-0.008-2.764-0.884-2.53-2.914c0.471-4.088,0.862-8.186,1.288-12.279C13.829,46.861,13.975,45.422,14.141,43.798
		 M20.292,61.719c1.857,0,3.715-0.004,5.572,0.003c0.46,0.001,0.75-0.051,0.717-0.664c-0.346-6.361-0.672-12.725-0.973-19.089
		c-0.036-0.769-0.285-1.08-1.08-1.068c-2.431,0.034-4.863,0.038-7.293-0.002c-0.805-0.014-1.111,0.238-1.197,1.067
		c-0.656,6.302-1.356,12.599-2.062,18.895c-0.078,0.698,0.196,0.879,0.846,0.868C16.645,61.701,18.468,61.719,20.292,61.719
		 M32.562,61.662h2.856c0-0.319,0.023-0.582-0.002-0.84c-0.412-4.094-0.822-8.188-1.248-12.279c-0.237-2.28-0.49-4.559-0.773-6.832
		c-0.034-0.274-0.275-0.713-0.469-0.741c-0.641-0.095-1.301-0.036-2.035-0.036C31.458,47.957,32.006,54.77,32.562,61.662
		 M30.858,61.666c-0.389-5.2-0.765-10.268-1.148-15.334c-0.115-1.545-0.261-3.088-0.373-4.633c-0.073-1.029-0.84-0.746-1.433-0.781
		c-0.584-0.035-0.712,0.253-0.684,0.82c0.311,6.221,0.589,12.443,0.887,18.665c0.021,0.423,0.124,0.841,0.188,1.263H30.858z
		 M13.327,42.443c0.483-0.408,0.801-0.678,1.12-0.947c-0.315-0.194-0.641-0.563-0.94-0.541c-0.444,0.029-0.869,0.336-1.303,0.523
		C12.523,41.751,12.842,42.026,13.327,42.443 M35.095,41.023c-0.165,0.995,0.31,1.231,1.028,1.042
		c0.269-0.069,0.697-0.524,0.65-0.635C36.43,40.611,35.749,40.945,35.095,41.023"/>
	<path fill="#10804F" d="M34.981,11.208c7.231,0,14.461-0.001,21.692,0.001c1.913,0,2.873,0.933,2.876,2.837
		c0.009,5.913,0.011,11.826-0.001,17.739c-0.004,2.085-0.896,2.961-2.963,2.961c-14.326,0.003-28.653,0.003-42.979,0
		c-2.389,0-3.138-0.759-3.138-3.153c0-5.88-0.001-11.759,0.001-17.638c0.001-1.835,0.897-2.744,2.717-2.745
		C20.452,11.207,27.716,11.208,34.981,11.208 M34.99,12.843c-7.161,0-14.322-0.002-21.483,0.003c-1.214,0-1.372,0.159-1.373,1.315
		c-0.003,5.844-0.003,11.688,0,17.531c0,1.24,0.167,1.42,1.399,1.42c14.288,0.004,28.578,0.004,42.867,0.002
		c1.318-0.002,1.521-0.215,1.522-1.543c0.003-5.709,0.002-11.416,0.001-17.125c-0.001-1.451-0.154-1.602-1.652-1.603
		C49.178,12.843,42.084,12.844,34.99,12.843"/>
	<path fill="#10804F" d="M35.014,6.502c8.514,0,17.028-0.001,25.542,0.001c0.438,0.001,0.881-0.003,1.315,0.047
		c1.385,0.154,2.293,1.094,2.306,2.492c0.03,3.176,0.011,6.352,0.01,9.527c-0.001,0.578-0.097,1.137-0.817,1.164
		c-0.851,0.033-0.824-0.622-0.824-1.207c-0.006-2.973,0-5.946-0.006-8.92c-0.002-1.208-0.266-1.48-1.492-1.48
		c-17.332-0.004-34.665-0.004-51.999,0c-1.396,0-1.614,0.237-1.614,1.676c-0.001,15.678-0.001,31.354,0,47.03
		c0,1.495,0.04,1.526,1.535,1.534c0.506,0.003,1.051-0.068,1.502,0.1c0.323,0.12,0.521,0.581,0.772,0.891
		c-0.311,0.24-0.595,0.628-0.938,0.69c-0.621,0.114-1.278,0.04-1.92,0.033c-1.435-0.015-2.351-0.812-2.537-2.228
		c-0.054-0.401-0.042-0.811-0.042-1.215C5.805,41.097,5.804,25.554,5.811,10.013c0-0.537,0.042-1.08,0.134-1.608
		c0.185-1.062,0.888-1.638,1.911-1.821c0.461-0.082,0.941-0.078,1.413-0.078C17.851,6.501,26.432,6.502,35.014,6.502"/>
	<path fill="#10804F" d="M64.188,41.124c0,5.302,0.002,10.603-0.001,15.904c-0.001,2.179-0.885,3.054-3.066,3.054
		c-7.091,0-14.183,0-21.273-0.001c-0.27,0-0.596,0.089-0.797-0.03c-0.308-0.181-0.682-0.479-0.738-0.78
		c-0.042-0.224,0.324-0.661,0.604-0.774c0.385-0.156,0.859-0.128,1.295-0.128c6.889-0.006,13.777-0.004,20.666-0.005
		c1.608,0,1.668-0.061,1.668-1.632c0-10.569-0.003-21.138,0.006-31.707c0-0.634-0.244-1.56,0.742-1.593
		c1.031-0.035,0.893,0.889,0.894,1.586C64.189,30.386,64.188,35.755,64.188,41.124"/>
	<path fill="#10804F" d="M55.812,46.671c-0.708,0-1.418,0.02-2.126-0.005c-1.003-0.034-1.576-0.558-1.608-1.567
		c-0.043-1.416-0.048-2.836,0.002-4.252c0.037-1.018,0.662-1.615,1.683-1.646c1.349-0.041,2.7-0.042,4.049-0.009
		c1.011,0.023,1.667,0.627,1.706,1.634c0.055,1.415,0.063,2.836-0.001,4.25c-0.052,1.137-0.615,1.584-1.78,1.593
		C57.094,46.675,56.452,46.67,55.812,46.671 M55.799,45.046c2.124,0,2.124,0,2.124-1.928c0-2.206,0-2.213-2.258-2.204
		c-2.354,0.01-1.955-0.21-1.976,1.985C53.669,45.046,53.686,45.046,55.799,45.046"/>
	<path fill="#10804F" d="M42.879,42.894c0-0.674-0.013-1.348,0.003-2.021c0.021-1.033,0.474-1.602,1.503-1.652
		c1.444-0.07,2.899-0.078,4.344-0.006c0.92,0.046,1.479,0.645,1.5,1.594c0.031,1.449,0.035,2.898-0.002,4.346
		c-0.024,0.971-0.635,1.508-1.632,1.516c-1.348,0.01-2.696,0.013-4.044-0.002c-1.175-0.014-1.653-0.496-1.671-1.65
		C42.87,44.309,42.878,43.601,42.879,42.894 M44.589,40.989v3.882c1.06,0.058,2.119,0.117,3.179,0.176
		c0.101,0.004,0.238,0.039,0.297-0.012c0.197-0.172,0.515-0.367,0.524-0.566c0.05-1.135,0.023-2.272,0.023-3.479H44.589z"/>
	<path fill="#10804F" d="M55.777,55.709c-0.675,0.002-1.35,0.019-2.024-0.002c-1.055-0.032-1.644-0.56-1.678-1.608
		c-0.045-1.382-0.039-2.768-0.002-4.15c0.026-1.047,0.618-1.605,1.66-1.619c1.35-0.018,2.7-0.014,4.049-0.002
		c1.112,0.011,1.693,0.515,1.743,1.652c0.06,1.381,0.058,2.768,0.005,4.149c-0.039,0.993-0.631,1.526-1.627,1.572
		C57.196,55.736,56.486,55.708,55.777,55.709 M55.844,49.966c-2.158,0-2.177,0-2.154,2.087c0.022,2.248-0.42,2.075,2.12,2.073
		c2.544-0.002,2.08,0.169,2.107-2.083C57.943,49.966,57.923,49.966,55.844,49.966"/>
	<path fill="#10804F" d="M42.88,51.978c0-0.74-0.022-1.483,0.007-2.224c0.034-0.877,0.563-1.38,1.399-1.411
		c1.48-0.055,2.963-0.037,4.445-0.009c0.912,0.019,1.455,0.54,1.482,1.445c0.045,1.48,0.05,2.965,0.008,4.446
		c-0.026,0.903-0.58,1.441-1.48,1.469c-1.48,0.043-2.965,0.041-4.445,0c-0.92-0.023-1.404-0.564-1.414-1.494
		C42.874,53.459,42.88,52.718,42.88,51.978 M44.514,49.966c0,1.266-0.038,2.377,0.03,3.481c0.015,0.237,0.399,0.622,0.638,0.642
		c0.903,0.077,1.821,0.077,2.726,0.001c0.251-0.021,0.657-0.388,0.676-0.62c0.075-0.972,0.06-1.953,0.004-2.929
		c-0.012-0.201-0.328-0.54-0.518-0.549C46.934,49.941,45.794,49.966,44.514,49.966"/>
	<path fill="#10804F" d="M46.577,21.587c0.318-0.486,0.538-0.802,0.738-1.129c0.352-0.572,0.588-1.275,1.07-1.693
		c0.387-0.336,1.086-0.473,1.614-0.414c0.265,0.027,0.646,0.685,0.656,1.064c0.06,2.532,0.036,5.066,0.032,7.602
		c-0.002,0.718-0.397,1.025-1.095,1.016c-0.723-0.01-1.007-0.346-0.983-1.08c0.041-1.344,0.012-2.691-0.207-4.132
		c-0.27,0.395-0.508,0.817-0.817,1.176s-0.659,0.836-1.054,0.906c-0.242,0.043-0.633-0.561-0.901-0.915
		c-0.28-0.367-0.491-0.785-0.733-1.18c-0.092,0.013-0.186,0.025-0.278,0.039c0,1.355,0.006,2.713-0.002,4.068
		c-0.007,0.918-0.464,1.334-1.326,1.071c-0.319-0.097-0.747-0.554-0.754-0.855c-0.06-2.601-0.063-5.202-0.001-7.803
		c0.008-0.358,0.395-0.869,0.734-1.026c0.625-0.289,1.274-0.099,1.67,0.536C45.457,19.665,45.94,20.513,46.577,21.587"/>
	<path fill="#10804F" d="M19.256,27.341c0.43-1.42,0.784-2.612,1.148-3.801c0.455-1.479,0.949-2.947,1.365-4.438
		c0.221-0.794,0.809-0.963,1.457-0.979c0.634-0.016,1.185,0.219,1.402,0.924c0.789,2.539,1.59,5.073,2.383,7.61
		c0.213,0.687-0.066,1.112-0.733,1.3c-0.658,0.186-1.089,0.021-1.291-0.716c-0.122-0.444-0.375-1.135-0.674-1.194
		c-0.773-0.155-1.628-0.123-2.397,0.056c-0.248,0.058-0.379,0.797-0.486,1.243c-0.16,0.667-0.637,0.794-1.155,0.644
		C19.893,27.882,19.577,27.552,19.256,27.341 M22.233,24.409c0.756-0.046,1.277-0.077,1.928-0.116c-0.314-1.101-0.57-2-0.827-2.899
		c-0.1,0.01-0.2,0.019-0.3,0.028C22.788,22.341,22.541,23.259,22.233,24.409"/>
	<path fill="#10804F" d="M33.001,20.117c-0.601,0-1.066,0.008-1.531-0.001c-0.618-0.012-0.918-0.345-0.942-0.953
		c-0.026-0.633,0.289-0.956,0.904-0.96c1.756-0.01,3.514-0.009,5.27,0c0.617,0.004,0.925,0.335,0.921,0.957
		c-0.005,0.619-0.317,0.939-0.931,0.954c-0.468,0.013-0.937,0.003-1.584,0.003v2.758c0,1.283-0.021,2.567,0.008,3.851
		c0.018,0.784-0.141,1.334-1.088,1.313c-0.881-0.019-1.039-0.539-1.033-1.277C33.014,24.602,33.001,22.443,33.001,20.117"/>
</g>
</svg>
