<?xml version="1.0" encoding="utf-8"?>
<!-- Generator: Adobe Illustrator 16.0.0, SVG Export Plug-In . SVG Version: 6.00 Build 0)  -->
<!DOCTYPE svg PUBLIC "-//W3C//DTD SVG 1.1//EN" "http://www.w3.org/Graphics/SVG/1.1/DTD/svg11.dtd">
<svg version="1.1" id="Layer_1" xmlns="http://www.w3.org/2000/svg" xmlns:xlink="http://www.w3.org/1999/xlink" x="0px" y="0px"
	 width="70px" height="70px" viewBox="0 0 70 70" enable-background="new 0 0 70 70" xml:space="preserve">
<g>
	<path fill="#10804F" d="M60.352,27.451L35.502,9.457c-0.301-0.219-0.704-0.219-1.004,0L9.647,27.451
		c-0.384,0.275-0.471,0.813-0.192,1.195c0.16,0.223,0.418,0.355,0.693,0.355H59.85c0.474,0,0.858-0.385,0.858-0.857
		C60.708,27.869,60.575,27.611,60.352,27.451 M12.794,27.287L35,11.207l22.204,16.08H12.794z"/>
	<path fill="#10804F" d="M57.278,55.561h-44.56c-0.475,0-0.857,0.385-0.857,0.859c0,0.471,0.383,0.855,0.857,0.855h44.56
		c0.473,0,0.857-0.385,0.857-0.855C58.136,55.946,57.751,55.561,57.278,55.561"/>
	<path fill="#10804F" d="M59.851,58.995H10.149c-0.474,0-0.856,0.385-0.856,0.857s0.383,0.855,0.856,0.855h49.701
		c0.474,0,0.857-0.383,0.857-0.855S60.324,58.995,59.851,58.995"/>
	<path fill="#10804F" d="M26.428,52.137h-1.713V32.429h1.713c0.475,0,0.858-0.385,0.858-0.859c0-0.472-0.384-0.855-0.858-0.855
		H16.146c-0.474,0-0.856,0.384-0.856,0.855c0,0.475,0.383,0.859,0.856,0.859h1.713v19.708h-1.713c-0.474,0-0.856,0.383-0.856,0.857
		c0,0.471,0.383,0.855,0.856,0.855h10.282c0.475,0,0.858-0.385,0.858-0.855C27.286,52.52,26.902,52.137,26.428,52.137
		 M23.002,52.137h-3.43V32.429h3.43V52.137z"/>
	<path fill="#10804F" d="M40.145,52.137h-1.716V32.429h1.716c0.473,0,0.856-0.385,0.856-0.859c0-0.472-0.384-0.855-0.856-0.855
		H29.86c-0.472,0-0.856,0.384-0.856,0.855c0,0.475,0.385,0.859,0.856,0.859h1.715v19.708H29.86c-0.472,0-0.856,0.383-0.856,0.857
		c0,0.471,0.385,0.855,0.856,0.855h10.284c0.473,0,0.856-0.385,0.856-0.855C41.001,52.52,40.617,52.137,40.145,52.137
		 M36.716,52.137h-3.429V32.429h3.429V52.137z"/>
	<path fill="#10804F" d="M53.852,52.137h-1.714V32.429h1.714c0.474,0,0.856-0.385,0.856-0.859c0-0.472-0.383-0.855-0.856-0.855
		H43.569c-0.475,0-0.859,0.384-0.859,0.855c0,0.475,0.385,0.859,0.859,0.859h1.713v19.708h-1.713c-0.475,0-0.859,0.383-0.859,0.857
		c0,0.471,0.385,0.855,0.859,0.855h10.282c0.474,0,0.856-0.385,0.856-0.855C54.708,52.52,54.325,52.137,53.852,52.137
		 M50.423,52.137h-3.428V32.429h3.428V52.137z"/>
</g>
</svg>
