<?xml version="1.0" encoding="utf-8"?>
<!-- Generator: Adobe Illustrator 16.0.0, SVG Export Plug-In . SVG Version: 6.00 Build 0)  -->
<!DOCTYPE svg PUBLIC "-//W3C//DTD SVG 1.1//EN" "http://www.w3.org/Graphics/SVG/1.1/DTD/svg11.dtd">
<svg version="1.1" id="Layer_1" xmlns="http://www.w3.org/2000/svg" xmlns:xlink="http://www.w3.org/1999/xlink" x="0px" y="0px"
	 width="85.414px" height="70px" viewBox="0 0 85.414 70" enable-background="new 0 0 85.414 70" xml:space="preserve">
<g>
	<path fill="#10804F" d="M31.895,69.901c-0.364,0-0.69-0.207-0.848-0.515c-0.067-0.037-0.13-0.082-0.191-0.135
		c-0.046-0.041-0.087-0.081-0.125-0.117l-0.003-0.002c-0.009-0.007-0.019-0.014-0.029-0.02c-0.041-0.012-0.084-0.026-0.127-0.045
		c-0.164-0.003-0.32-0.051-0.457-0.135c-0.063-0.029-0.135-0.062-0.153-0.072c-0.077-0.044-0.141-0.094-0.191-0.145
		c-0.021,0-0.045,0-0.067,0c-0.066-0.005-0.125-0.014-0.18-0.023c-0.221-0.018-0.481-0.107-0.675-0.303
		c-0.245-0.088-0.487-0.293-0.591-0.639c-0.213-0.326-0.2-0.668-0.077-0.936c0.002-0.036,0.003-0.075,0.005-0.109
		c0.004-0.109,0.014-0.201,0.021-0.243c0.004-0.024,0.01-0.05,0.017-0.077c-0.017-0.121-0.012-0.229,0.005-0.324
		c-0.019-0.082-0.026-0.17-0.022-0.256c0.005-0.078,0.019-0.156,0.041-0.23c-0.004-0.02-0.006-0.037-0.009-0.052
		c-0.016-0.076-0.038-0.246-0.049-0.384c-0.025-0.086-0.057-0.211-0.057-0.358c0-0.14,0.028-0.263,0.067-0.366
		c-0.06-0.018-0.121-0.04-0.183-0.066c-0.134,0.027-0.274,0.028-0.407,0.008c-0.16,0.103-0.351,0.162-0.548,0.162h-0.005
		c-0.28,0-0.541-0.112-0.738-0.309c-0.016,0-0.033-0.002-0.049-0.003c-0.138,0.068-0.291,0.104-0.458,0.109l-0.026,0.005
		c-0.605,0.113-0.909-0.201-1.034-0.396c-0.17-0.266-0.188-0.595-0.061-0.879c-0.021-0.126-0.032-0.274-0.01-0.441
		c0.034-0.267,0.12-0.639,0.336-0.904c0-0.001,0.001-0.001,0.002-0.002c0.003-0.02,0.007-0.039,0.013-0.059
		c-0.281-0.23-0.416-0.381-0.488-0.51c-0.096,0.026-0.182,0.038-0.252,0.047c-0.045,0.006-0.095,0.015-0.135,0.022
		c-0.096,0.019-0.173,0.031-0.268,0.031c-0.066,0-0.126-0.005-0.275-0.03l-0.023,0.01c-0.368,0.201-0.715,0.148-0.938,0.067
		c-0.063-0.023-0.087-0.03-0.147-0.046c-0.001-0.001-0.002-0.001-0.004-0.001c-0.129,0.085-0.295,0.167-0.479,0.194
		c-0.083,0.012-0.168,0.023-0.257,0.029c-0.129,0.063-0.286,0.105-0.477,0.105c-0.193,0-0.372-0.058-0.591-0.142
		c-0.036-0.005-0.071-0.011-0.104-0.018c-0.153,0.038-0.317,0.042-0.484,0.005c-0.033-0.008-0.064-0.016-0.096-0.025
		c-0.025,0.023-0.05,0.045-0.073,0.063c-0.429,0.444-0.896,0.379-1.176,0.237c-0.19,0.051-0.451,0.078-0.79-0.058l-0.067-0.026
		c-0.067-0.002-0.156-0.002-0.247-0.004c-0.109-0.002-0.222-0.002-0.306-0.004c-0.203,0.256-0.465,0.326-0.593,0.346
		c-0.21,0.037-0.407,0.015-0.58-0.06c-0.118,0.056-0.252,0.086-0.423,0.087c-0.263-0.007-0.504-0.117-0.688-0.314
		c-0.025-0.012-0.048-0.025-0.071-0.039l-0.059-0.034c-0.005-0.004-0.011-0.007-0.017-0.011c-0.202-0.032-0.342-0.1-0.426-0.146
		c-0.004-0.001-0.006-0.001-0.01-0.002c-0.053-0.011-0.123-0.022-0.201-0.047c-0.111,0.011-0.228,0.003-0.345-0.026
		c-0.011-0.004-0.037-0.009-0.06-0.011h-0.001c-0.177,0-0.567-0.054-0.622-0.063c-0.114-0.008-0.322-0.023-0.533-0.137h-0.001
		c0,0-0.002,0-0.006-0.002c-0.058-0.011-0.189-0.031-0.287-0.047c-0.016,0.193-0.093,0.383-0.219,0.531
		c-0.355,0.439-0.868,0.451-1.212,0.273c-0.015-0.006-0.03-0.013-0.044-0.017c-0.099-0.021-0.286-0.062-0.377-0.073
		c-0.188-0.017-0.432-0.089-0.614-0.156c-0.133,0.07-0.287,0.11-0.458,0.117c-0.025,0.002-0.051,0.006-0.07,0.008
		c-0.289,0.066-0.526-0.018-0.669-0.084c-0.051-0.008-0.114-0.018-0.171-0.025c-0.114-0.016-0.217-0.031-0.265-0.041
		c-0.073-0.014-0.396-0.064-0.492-0.075c-0.188-0.006-0.332-0.06-0.413-0.092c-0.01,0.12-0.043,0.237-0.099,0.349
		c-0.147,0.285-0.427,0.473-0.766,0.512c-0.052,0.005-0.132,0.007-0.219,0.005c-0.133,0.024-0.283,0.03-0.46,0.014
		c-0.219-0.019-0.405-0.101-0.493-0.142c-0.081-0.033-0.153-0.071-0.216-0.112c-0.038,0.003-0.075,0.003-0.113,0.001
		c-0.138-0.007-0.231-0.032-0.308-0.057c-0.107,0.086-0.239,0.172-0.392,0.224c-0.105,0.076-0.245,0.149-0.426,0.188
		c-0.125,0.027-0.369,0.064-0.599,0.008c-0.455-0.114-0.764-0.528-0.752-0.971c-0.147-0.053-0.28-0.133-0.385-0.236
		c-0.048-0.047-0.106-0.115-0.106-0.115c-0.19-0.211-0.267-0.497-0.212-0.775l0.056-0.285c0.027-0.136,0.083-0.263,0.166-0.371
		c0,0,0.113-0.15,0.236-0.299c0.029-0.051,0.075-0.151,0.114-0.239c-0.065-0.179-0.119-0.443-0.033-0.768
		c0.021-0.081,0.051-0.165,0.079-0.243c-0.026-0.138-0.039-0.31,0.003-0.506c0.029-0.141,0.07-0.267,0.099-0.345
		c0.004-0.021,0.01-0.047,0.017-0.073c-0.057-0.369,0.085-0.783,0.534-1.042c-0.016-0.461,0.277-0.86,0.29-0.879
		c0.041-0.054,0.083-0.099,0.125-0.14c0.025-0.255,0.133-0.463,0.324-0.626c0.197-0.168,0.447-0.244,0.705-0.22
		c0.032-0.021,0.067-0.041,0.104-0.06c0.207-0.104,0.479-0.151,0.758-0.067c0.017-0.032,0.036-0.065,0.057-0.098
		c0.003-0.008,0.005-0.015,0.007-0.021c0.111-0.325,0.613-0.894,1.205-0.894h0.024c0.006-0.002,0.011-0.004,0.018-0.007
		c0.219-0.083,0.439-0.132,0.601-0.168c0.044-0.01,0.083-0.018,0.114-0.027c0.029-0.008,0.06-0.021,0.09-0.031
		c0.135-0.049,0.313-0.115,0.521-0.125c0.019-0.004,0.041-0.01,0.063-0.014c0.223-0.046,0.52-0.105,0.823,0.014
		c0.056-0.01,0.103-0.017,0.139-0.021c0.035-0.145,0.102-0.282,0.195-0.4c0.148-0.188,0.35-0.315,0.574-0.367
		c-0.052-0.104-0.093-0.215-0.12-0.33c-0.122,0.021-0.266,0.035-0.443,0.041c-0.172,0.006-0.344-0.041-0.49-0.129
		c-0.184-0.008-0.365-0.068-0.534-0.181c-0.123-0.082-0.457-0.305-0.502-0.758c-0.009-0.084-0.009-0.206,0.029-0.344
		c-0.036-0.185-0.019-0.378,0.054-0.578c0.044-0.124,0.136-0.382,0.156-0.445c0.012-0.043,0.06-0.229,0.082-0.329
		c-0.006-0.183-0.018-0.652-0.023-0.844c-0.217-1.005-0.209-1.115-0.202-1.232c-0.001-0.015-0.008-0.07-0.013-0.125
		c-0.008-0.078-0.016-0.153-0.02-0.217c-0.003-0.059-0.001-0.117,0.004-0.176c-0.079-0.031-0.162-0.074-0.245-0.134
		c-0.178-0.126-0.486-0.464-0.647-0.647c-0.038-0.021-0.083-0.046-0.113-0.061c-0.235-0.064-0.486-0.206-0.621-0.289
		c-0.112-0.049-0.426-0.171-0.601-0.238c-0.401-0.154-0.47-0.184-0.546-0.224c-0.052-0.028-0.139-0.074-0.691-0.499
		c-0.067-0.053-0.129-0.116-0.179-0.186c-0.104-0.143-0.231-0.308-0.291-0.379c-0.167-0.129-0.372-0.328-0.478-0.468
		c-0.078-0.104-0.129-0.212-0.167-0.29c0,0-0.001-0.002-0.001-0.003c-0.074-0.062-0.177-0.157-0.273-0.305
		c-0.09-0.134-0.137-0.269-0.161-0.388c-0.057-0.05-0.118-0.105-0.175-0.168c-0.306-0.332-0.326-0.729-0.311-0.972
		c-0.035-0.089-0.074-0.194-0.1-0.312c-0.089-0.127-0.234-0.34-0.234-0.644c0-0.05,0.005-0.096,0.011-0.139
		c-0.085-0.106-0.148-0.224-0.211-0.337c-0.017-0.028-0.03-0.055-0.043-0.076c-0.013-0.02-0.022-0.038-0.032-0.057
		c-0.593-0.202-0.723-0.627-0.742-0.892c-0.01-0.046-0.028-0.095-0.037-0.124c-0.001-0.008-0.004-0.016-0.006-0.022
		c-0.04-0.097-0.155-0.358-0.205-0.464c-0.289-0.396-0.406-0.566-0.418-0.84c-0.039-0.471,0.198-0.74,0.345-0.861
		c0.251-0.205,0.591-0.268,0.913-0.166c0.019,0.006,0.036,0.012,0.053,0.019l6.144,2.38l3.224-0.02
		c0.172-0.012,0.368-0.034,0.451-0.048c0.208-0.076,0.711-0.22,1.212-0.064c0.081,0.021,0.533,0.099,0.831,0.15
		c0.462,0.079,0.799,0.138,1.049,0.202c0.02-0.014,0.038-0.027,0.059-0.039c0.011-0.008,0.996-0.56,1.627-0.629l-0.001-0.014
		c0.041-0.004,0.136-0.017,0.245-0.031c0.433-0.057,0.585-0.074,0.697-0.074c0.111,0,0.297,0,1.547,0.408
		c0.062,0.02,0.173,0.037,0.241,0.041c0.225-0.08,0.791-0.25,2.46-0.694c1.105-0.341,1.743-0.538,2.114-0.651
		c-0.097-0.29-0.044-0.549,0.005-0.697c0.001-0.008,0.001-0.014,0.001-0.021c0.002-0.097,0.005-0.247,0.067-0.413
		c0.059-0.165,0.15-0.282,0.212-0.359l0.005-0.006c0.012-0.058,0.028-0.138,0.037-0.183c0.009-0.051,0.019-0.099,0.028-0.138
		c-0.104-0.112-0.194-0.246-0.248-0.399c-0.104-0.298-0.044-0.581,0.046-0.92c-0.001,0.001-0.001,0.002-0.001,0.004
		c0.017-0.073,0.052-0.178,0.117-0.378c0.062-0.189,0.14-0.426,0.169-0.523l0.009-0.053c0.073-0.449,0.142-0.874,0.524-1.136
		c0.175-0.119,0.367-0.171,0.548-0.2c0.092-0.182,0.239-0.336,0.443-0.462c0.016-0.012,0.058-0.056,0.087-0.092
		c0.127-0.4,0.356-0.654,0.684-0.755c0.007-0.006,0.018-0.016,0.027-0.029c0.335-0.42,0.735-0.633,1.189-0.633l0.04-0.004
		c0.229-0.022,0.658-0.064,1.009,0.254c0.108,0.099,0.192,0.22,0.246,0.354h0.068c0.028-0.01,0.057-0.019,0.084-0.025
		c0.041-0.01,0.217-0.041,0.402-0.073c0.013-0.003,0.024-0.004,0.035-0.006c-0.017-0.107-0.023-0.218-0.031-0.336l-0.002-0.044
		c-0.035-0.326,0.108-0.674,0.376-0.893c0.24-0.195,0.544-0.269,0.854-0.21c0.217-0.294,0.568-0.479,0.954-0.491
		c0.01-0.002,0.021-0.005,0.036-0.009c0.061-0.065,0.135-0.149,0.191-0.215c0.047-0.135,0.131-0.312,0.29-0.471
		c0.284-0.284,1.093-0.657,1.677-0.23c0.025,0.019,0.049,0.036,0.07,0.056c0.014-0.008,0.026-0.017,0.038-0.023
		c0.426-0.281,0.914-0.285,1.33-0.016l0.035,0.009c0.16,0.043,0.626,0.167,0.819,0.635c0.068-0.124,0.157-0.278,0.291-0.412
		c0.043-0.26,0.168-0.44,0.3-0.563c0.002-0.183,0.056-0.332,0.105-0.436c0.021-0.04,0.042-0.079,0.064-0.117
		c-0.001-0.014-0.002-0.026-0.002-0.037c-0.079-0.265-0.079-0.562-0.05-0.765c0.018-0.126,0.034-0.312,0.043-0.44
		c-0.155-0.416,0.006-0.883,0.125-1.09c0.082-0.141,0.284-0.343,0.491-0.509c-0.041-0.325,0.077-0.667,0.325-0.911
		c0.014-0.025,0.03-0.056,0.044-0.085c0-0.006-0.001-0.012-0.002-0.019c-0.03-0.16-0.069-0.381-0.06-0.639
		c0.021-0.701,0.751-1.172,1.152-1.24c0.177-0.029,0.323-0.01,0.431,0.002c0.034,0.005,0.073,0.011,0.125,0.012l0.018-0.006
		c0.068-0.023,0.142-0.047,0.237-0.068c0.273-0.063,0.456-0.066,0.654-0.052c0.134-0.062,0.262-0.099,0.365-0.123
		c0.038-0.032,0.069-0.06,0.069-0.06c0.019-0.017,0.035-0.029,0.055-0.045l0.142-0.104c-0.148-0.177-0.254-0.391-0.299-0.616
		c-0.026-0.129-0.03-0.251-0.025-0.355c-0.156-0.075-0.301-0.182-0.426-0.321c-0.155-0.161-0.301-0.328-0.396-0.524
		c-0.586-0.328-0.577-0.871-0.555-1.05c0.028-0.231,0.122-0.433,0.278-0.6c0.039-0.313,0.195-0.578,0.45-0.739
		c0.371-0.236,0.813-0.26,1.183-0.078c0.003,0,0.006,0,0.008-0.001c0.057-0.005,0.102-0.007,0.128-0.007
		c0.28,0,0.475,0.119,0.665,0.234c0.039,0.023,0.082,0.051,0.121,0.072c0.062,0.01,0.17,0.019,0.238,0.025
		c0.11,0.01,0.216,0.021,0.295,0.033c0.201,0.01,0.941-0.028,1.183-0.049l0.06-0.021c0.304-0.099,0.471-0.151,0.576-0.182
		c0.079-0.044,0.204-0.121,0.279-0.173c0.039-0.067,0.097-0.172,0.148-0.269c-0.108-0.101-0.201-0.209-0.268-0.358
		c-0.044-0.099-0.168-0.457-0.219-0.62c-0.079-0.175-0.236-0.552-0.059-0.959c0.084-0.19,0.228-0.347,0.404-0.45
		c0.059-0.126,0.145-0.255,0.276-0.37c0.028-0.024,0.061-0.052,0.097-0.08c0.027-0.022,0.068-0.056,0.094-0.079
		c0.017-0.041,0.037-0.113,0.047-0.145c0.018-0.055,0.03-0.098,0.041-0.123c0.146-0.393,0.529-0.617,0.743-0.713
		c0.04-0.021,0.139-0.088,0.285-0.196l0.025-0.017c0.049-0.047,0.147-0.138,0.304-0.213c0.004-0.137,0.027-0.287,0.087-0.436
		c-0.03-0.093-0.052-0.198-0.056-0.314c-0.006-0.218,0.06-0.551,0.102-0.729c-0.003-0.049-0.009-0.119-0.016-0.176
		c-0.024-0.036-0.049-0.07-0.063-0.088c-0.012-0.019-0.04-0.059-0.05-0.077c-0.131-0.222-0.24-0.771-0.24-0.992
		c0-0.043,0.003-0.101,0.007-0.169V8.357c-0.455-0.258-0.685-0.42-0.809-0.68c-0.515-0.271-0.56-0.752-0.56-0.91
		c0-0.36,0.155-0.685,0.466-0.963c0.07-0.091,0.226-0.313,0.268-0.379c0.036-0.056,0.135-0.216,0.198-0.319l0.001-0.003
		c0.057-0.172,0.176-0.524,0.524-0.768l0.016-0.01c0.004-0.014,0.009-0.023,0.014-0.035c0.062-0.14,0.224-0.513,0.674-0.638
		c0.161-0.045,0.481-0.083,0.829,0.147c0.016-0.023,0.031-0.045,0.05-0.067c0.037-0.234,0.161-0.455,0.354-0.621
		c0.247-0.213,0.58-0.308,0.915-0.257c0.062,0.008,0.172,0.013,0.274,0.014c0.068-0.182,0.22-0.464,0.563-0.613
		c0.141-0.162,0.413-0.457,0.668-0.59c0.216-0.109,0.509-0.188,0.712-0.188c0.006,0,0.141-0.006,0.319-0.014
		c0.872-0.033,1.163-0.044,1.245-0.044c0.068-0.004,0.391-0.049,0.473-0.064l0.001,0.002c0.291-0.046,1.397-0.115,1.743-0.067
		c0.035-0.004,0.076-0.011,0.127-0.019l0.065-0.009c0.257-0.039,0.663-0.039,0.909,0.02c0.029,0.007,0.106,0.023,0.202,0.042
		c0.615,0.127,0.819,0.175,0.942,0.218c0.21-0.168,0.435-0.271,0.64-0.324c0.216-0.214,0.474-0.276,0.683-0.291
		c0.115-0.268,0.347-0.479,0.648-0.591c0.34-0.125,0.701-0.104,0.98,0.054c0.135,0.072,0.234,0.132,0.312,0.182
		c0.129-0.03,0.259-0.041,0.382-0.038c0.009-0.009,0.019-0.017,0.027-0.024c0.163-0.142,0.411-0.354,0.792-0.4
		c0.564-0.07,1.14,0.275,1.336,0.798l0.027,0.073c0.013,0.037,0.038,0.108,0.06,0.16c0.077,0.055,0.168,0.121,0.256,0.187
		c0.117,0.087,0.229,0.168,0.274,0.199c0.013,0.008,0.048,0.024,0.086,0.041c0.084,0.04,0.177,0.086,0.275,0.141
		c0.399,0.224,0.649,0.528,0.743,0.905c0.012,0.008,0.023,0.016,0.034,0.023c0.103,0,0.181,0.002,0.244,0.004
		c0.181-0.022,0.485-0.039,0.819,0.035h0.001c0.096,0.012,0.188,0.039,0.271,0.08c0.08,0.029,0.158,0.063,0.232,0.102
		c0.099,0.04,0.194,0.099,0.277,0.176c0.007,0.007,0.015,0.014,0.022,0.021c0.197,0.159,0.358,0.357,0.48,0.588
		c0.127,0.035,0.271,0.074,0.427,0.119l0.01,0.002c0.048,0.011,0.095,0.025,0.14,0.045c0.055,0.016,0.108,0.033,0.162,0.051
		c0.069,0.012,0.137,0.033,0.2,0.062c0.02,0.009,0.04,0.019,0.063,0.029c0.676,0.248,1.56,0.668,1.749,1.481
		c0.049,0.205,0.016,0.377-0.016,0.481c0.009,0.017,0.019,0.034,0.033,0.06c0.347,0.101,0.906,0.285,1.363,0.531
		c0.017,0.01,0.035,0.019,0.052,0.029c0.081,0.044,0.152,0.087,0.217,0.13c0.14,0.065,0.26,0.163,0.351,0.288
		c0.163,0.167,0.264,0.337,0.321,0.496c0.659-0.116,1.566-0.381,2.316-0.982c0.095-0.106,0.2-0.179,0.287-0.229
		c0.638-0.462,4.402-3.038,6.559-1.212c0.23-0.001,0.541-0.012,0.811-0.073c0.174-0.039,0.354-0.024,0.521,0.038
		c1.54,0.59,1.776,1.123,1.854,1.299c0.031,0.072,0.056,0.146,0.07,0.223c0.247,0.243,0.504,0.674,0.4,1.431
		c-0.027,0.296-0.15,1.021-0.735,1.661c0.161,0.908,0.02,1.671-0.413,2.215c-0.119,0.292-0.354,0.601-0.68,0.816l-0.084,0.599
		c-0.059,0.416-0.396,0.737-0.814,0.773l-0.152,0.015c0.004,0.065,0,0.134-0.011,0.201l-0.087,0.518
		c-0.004,0.027-0.011,0.054-0.018,0.08c-0.132,0.511-0.656,1.384-1.795,1.695c0.063,0.287-0.018,0.597-0.231,0.819l-0.692,0.72
		c0.126,0.108,0.35,0.265,0.742,0.449c0.072,0.021,0.142,0.051,0.21,0.09c0.011,0.008,0.021,0.014,0.032,0.02l0.042,0.02
		c0.138,0.057,0.259,0.146,0.353,0.262c0.217,0.266,0.21,0.545,0.206,0.693c-0.022,0.738,0.104,1.547,0.377,2.406
		c0.226,0.447,0,1.021-0.19,1.502c-0.049,0.125-0.125,0.236-0.222,0.328l-0.657,0.617c-0.09,0.109-0.203,0.23-0.351,0.332
		l-0.092,0.085c-0.207,0.196-0.495,0.28-0.774,0.232c-0.557-0.097-1.259-0.515-1.594-1.315c-0.022,0-0.04,0-0.061-0.001
		l-0.351-0.019l-0.152,0.119c-0.062,0.063-0.132,0.113-0.206,0.154c-0.276,0.185-0.634,0.203-0.929,0.044
		c-0.151-0.081-0.271-0.2-0.354-0.341c-0.202,0.059-0.476,0.065-0.745-0.049c-0.096-0.041-0.184-0.099-0.258-0.168
		c-0.079-0.033-0.154-0.078-0.224-0.136c-0.086-0.069-0.163-0.144-0.228-0.216c-0.059-0.064-0.105-0.135-0.142-0.209
		c-0.029-0.029-0.058-0.061-0.085-0.096l-0.102-0.131c-0.034-0.041-0.064-0.086-0.088-0.133c-0.042-0.037-0.081-0.078-0.115-0.125
		l-0.023-0.024l-1.025,0.337c-0.189,0.063-0.393,0.061-0.579-0.005c0,0-0.115-0.04-0.299-0.105
		c-0.086-0.005-0.171-0.017-0.259-0.036c-0.179-0.039-0.333-0.115-0.463-0.226c-1.659-0.61-2.24-0.907-2.493-1.08
		c-0.02,0.035-0.041,0.072-0.066,0.111c-0.143,0.219-0.374,0.407-0.568,0.538l-0.092,0.087l-0.601,0.722l0.106,0.378
		c0.081,0.285,0.018,0.593-0.172,0.82l-0.543,0.662c-0.063,0.105-0.136,0.189-0.209,0.255l-0.37,0.449
		c-0.15,0.185-0.369,0.301-0.605,0.326l-0.65,0.066c-0.03,0.086-0.059,0.164-0.085,0.232l-0.013,0.033
		c-0.243,0.638-1.105,0.902-1.514,0.902c-0.119,0.01-0.534,0.113-0.651,0.168c-0.135,0.069-0.334,0.191-0.431,0.26
		c-0.17,0.213-0.39,0.348-0.652,0.396c-0.059,0.089-0.112,0.173-0.151,0.23c0.119,0.185,0.215,0.354,0.252,0.564
		c0.025,0.143,0.075,0.992-0.106,1.447c-0.049,0.121-0.081,0.224-0.103,0.299c0.033,0.035,0.066,0.07,0.086,0.09
		c0.023,0.023,0.043,0.045,0.063,0.066c0.16,0.123,0.489,0.404,0.469,0.892c-0.015,0.321-0.184,0.608-0.464,0.783
		c-0.085,0.054-0.163,0.092-0.234,0.122c-0.054,0.1-0.132,0.214-0.248,0.318c-0.157,0.144-0.319,0.221-0.443,0.266
		c-0.04,0.074-0.092,0.15-0.159,0.224c-0.063,0.203-0.185,0.481-0.469,0.674c-0.012,0.035-0.024,0.069-0.039,0.104
		c-0.077,0.173-0.243,0.407-0.595,0.53l-0.022,0.01c-0.107,0.246-0.279,0.424-0.362,0.5l-0.038,0.041
		c-0.022,0.024-0.046,0.049-0.068,0.074c0.106,0.293,0.217,0.771-0.024,1.226c-0.203,0.384-0.517,0.614-0.667,0.724l-0.027,0.02
		c-0.092,0.07-0.177,0.137-1.438,0.684c-0.098,0.043-0.203,0.094-0.291,0.135c-0.022,0.221-0.069,0.447-0.128,0.605
		c-0.03,0.102-0.132,0.49-0.214,0.809c-0.015,0.051-0.031,0.102-0.054,0.149l-0.974,2.139c-0.049,0.103-0.262,0.532-0.514,0.829
		l-0.029,0.035c-0.19,0.225-0.341,0.402-0.656,0.541c-0.232,0.123-1.766,1.033-2.105,1.238c-0.448,1.457-0.464,1.494-0.487,1.549
		c-0.111,0.259-0.727,0.919-0.843,1.021l0.019-0.018c-0.032,0.031-0.091,0.096-0.136,0.15c-0.007,0.054-0.014,0.134-0.021,0.25
		c0.043,1.012-0.646,1.414-1.253,1.455c-0.575,0.039-1.46,0.123-1.672,0.168c-0.087,0.028-0.256,0.09-0.446,0.156
		c-0.435,0.154-0.738,0.262-0.891,0.311c-0.051,0.023-0.113,0.063-0.182,0.103c-0.318,0.185-0.677,0.396-1.071,0.396h-0.042
		c-0.271,0.002-1.003,0.004-1.42-0.7c-0.117-0.195-0.229-0.472-0.374-0.841c-0.029,0.029-0.059,0.061-0.093,0.097
		c-0.078,0.085-0.152,0.165-0.274,0.237l-0.068,0.05c-0.163,0.114-0.32,0.224-0.451,0.304c-0.011,0.014-0.022,0.029-0.031,0.046
		c-0.075,0.535-0.368,1.372-0.801,1.779c-0.191,0.179-0.711,0.799-0.99,1.132c-0.186,0.221-0.333,0.395-0.385,0.448
		c-0.054,0.057-0.187,0.243-0.252,0.35c-0.036,0.149-0.104,0.46-0.147,0.669c0.053,0.025,0.108,0.057,0.165,0.092l0.074,0.045
		c0.118,0.074,0.456,0.285,0.611,0.361c0.024-0.001,0.066-0.002,0.089-0.005c-0.025,0.003-0.045,0.009-0.06,0.013
		c0.18-0.045,1.157-0.076,1.604,0.236c0.514,0.359,0.591,1.063,0.591,1.448c0,0.196-0.02,1.2-0.406,1.701
		c0,0.001-0.001,0.002-0.001,0.002c0.011,0.021,0.021,0.04,0.028,0.057c0.051,0.104,0.1,0.206,0.138,0.295
		c0.07,0.064,0.152,0.147,0.242,0.271c0.066,0.09,0.113,0.168,0.155,0.242c0.091,0.05,0.135,0.068,0.153,0.076
		c0.163-0.007,0.282-0.035,0.337-0.061c0.77-0.334,1.393-0.001,1.612,0.5c0.09,0.208,0.111,0.423,0.125,0.965l0.002,0.076
		c0.007,0.074,0.003,0.145-0.003,0.244c-0.002,0.064-0.005,0.123-0.007,0.173c0.11,0.101,0.216,0.239,0.284,0.432
		c0.017,0.054,0.039,0.13,0.059,0.218c0.21,0.143,0.499,0.381,0.577,0.781c0.053,0.281,0.197,0.983,0.247,1.169l0.012,0.029
		c0.119,0.272,0.179,0.39,0.208,0.438c0.154,0.174,0.502,0.606,0.33,1.168c-0.03,0.099-0.071,0.183-0.12,0.256
		c0.095,0.07,0.181,0.162,0.253,0.285c0.195,0.328,0.146,0.631,0.1,0.78c-0.117,0.384-0.418,0.546-0.572,0.619
		c-0.031,0.031-0.069,0.065-0.116,0.103c-0.237,0.239-0.494,0.298-0.673,0.302c-0.013,0-0.024,0.001-0.039,0
		c-0.074,0.106-0.162,0.207-0.265,0.286c-0.297,0.222-0.565,0.267-0.901,0.267c-0.061,0-0.132,0.005-0.205,0.01
		c-0.264,0.017-0.514,0.031-0.76-0.051c-0.328-0.108-0.585-0.328-0.729-0.601c-0.14,0.099-0.323,0.221-0.576,0.259
		c-0.005,0.001-0.01,0.002-0.015,0.002c-0.062,0.069-0.125,0.134-0.18,0.188c-0.297,0.281-0.706,0.362-0.998,0.381
		c-0.054,0.002-0.301,0.007-0.541,0.012c-0.185,0.003-0.366,0.006-0.426,0.009c-0.351,0.019-0.721-0.142-0.989-0.335
		c-0.105,0.023-0.246,0.041-0.406,0.032c-0.18-0.009-0.338-0.054-0.46-0.095c-0.403,0.236-0.864,0.289-1.271,0.139
		c-0.108,0.025-0.21,0.033-0.308,0.027c-0.082,0.052-0.179,0.097-0.291,0.125c-0.041,0.01-0.082,0.018-0.123,0.022
		c-0.015,0.526-0.355,0.959-0.856,1.073c-0.216,0.049-0.842,0.07-1.032,0.074c-0.094,0.082-0.205,0.142-0.329,0.181
		c-0.011,0.004-0.023,0.007-0.036,0.01c-0.065,0.065-0.146,0.125-0.244,0.175c-0.002,0-0.004,0.002-0.008,0.002
		c-0.054,0.086-0.126,0.174-0.222,0.25c-0.04,0.411-0.337,0.748-0.787,0.847C32.065,69.896,31.981,69.901,31.895,69.901
		 M32.248,69.771L32.248,69.771L32.248,69.771z M32.633,69.19c0,0.001-0.002,0.003-0.003,0.004
		C32.631,69.193,32.633,69.191,32.633,69.19 M28.204,67.367v0.002V67.367z M31.245,67.011c0.153,0,0.308,0.039,0.446,0.115
		c0.061,0.032,0.135,0.083,0.208,0.156c0.087-0.016,0.175-0.02,0.265-0.011c0.072-0.079,0.16-0.147,0.258-0.2
		c0.134-0.225,0.349-0.381,0.604-0.438c0.043-0.01,0.085-0.016,0.126-0.02c0.372-0.216,0.803-0.116,0.966-0.078l0.024,0.006
		c0.019,0,0.041-0.001,0.065-0.002c0.058-0.269,0.183-0.689,0.188-0.71c0.181-0.61,0.818-0.884,1.334-0.792
		c0.043,0.008,0.085,0.02,0.125,0.03c0.031-0.009,0.062-0.015,0.092-0.021c0.255-0.048,0.468,0.008,0.632,0.088
		c0.211-0.033,0.422,0,0.613,0.101c0.196-0.101,0.474-0.214,0.789-0.195c0.201,0.009,0.366,0.069,0.487,0.114
		c0.01,0.004,0.019,0.008,0.03,0.012c0.091-0.025,0.23-0.061,0.404-0.061c0.376,0,0.69,0.121,0.958,0.371
		c0.091-0.002,0.209-0.004,0.33-0.006c0.173-0.004,0.35-0.008,0.436-0.01c0.012-0.014,0.023-0.027,0.036-0.041
		c0.065-0.07,0.13-0.141,0.188-0.197c0.25-0.25,0.531-0.315,0.729-0.327c0.083-0.059,0.187-0.124,0.308-0.171
		c0.117-0.045,0.24-0.073,0.431-0.113c0.06-0.012,0.12-0.024,0.169-0.036c0.384-0.192,0.865-0.162,1.042-0.127
		c0.318,0.065,0.571,0.251,0.709,0.519c0.034-0.037,0.07-0.071,0.106-0.104c-0.012-0.236,0.008-0.678,0.247-1.063
		c0.002-0.004,0.005-0.009,0.008-0.013c-0.074-0.139-0.147-0.304-0.231-0.497l-0.024-0.057c-0.026-0.055-0.096-0.214-0.295-1.229
		c-0.063-0.041-0.129-0.088-0.194-0.146c-0.211-0.19-0.311-0.438-0.372-0.648c-0.035-0.025-0.071-0.057-0.107-0.091
		c-0.345-0.327-0.356-0.786-0.333-1.278c-0.079,0.008-0.153,0.012-0.22,0.013c-0.467,0.016-0.818-0.16-1.113-0.327
		c-0.372-0.209-0.528-0.445-0.646-0.65c-0.013-0.023-0.026-0.05-0.048-0.078c-0.006-0.009-0.006-0.009-0.033-0.033
		c-0.096-0.086-0.274-0.248-0.406-0.58c-0.024-0.063-0.065-0.144-0.105-0.225c-0.145-0.295-0.27-0.55-0.27-0.841
		c0-0.325,0.143-0.713,0.384-1.051c0.034-0.116,0.067-0.373,0.077-0.574c-0.022-0.001-0.043-0.001-0.06-0.001
		c-0.209,0.031-0.534,0.039-0.802-0.025c-0.252-0.062-0.548-0.229-1.117-0.582l-0.07-0.043c-0.033-0.022-0.062-0.031-0.137-0.056
		c-0.107-0.034-0.27-0.087-0.439-0.198c-0.604-0.396-0.507-1.13-0.474-1.371c0.018-0.164,0.22-1.15,0.293-1.341
		c0.095-0.247,0.452-0.741,0.633-0.933c0.046-0.049,0.161-0.188,0.309-0.362c0.475-0.565,0.89-1.054,1.137-1.286
		c0.082-0.103,0.226-0.541,0.255-0.732c0.038-0.561,0.547-1.135,0.848-1.303c0.077-0.045,0.289-0.193,0.381-0.256
		c0.021-0.017,0.043-0.031,0.063-0.044c0.262-0.282,0.799-0.855,1.5-0.855c0.77,0,1.094,0.355,1.292,0.665
		c0.095,0.15,0.162,0.314,0.292,0.646c0.04,0.099,0.096,0.242,0.148,0.367c0.061-0.033,0.127-0.071,0.176-0.101
		c0.192-0.111,0.357-0.207,0.54-0.262c0.103-0.031,0.545-0.188,0.838-0.291c0.224-0.08,0.422-0.15,0.505-0.178
		c0.279-0.093,1.149-0.175,1.682-0.218c0.026-0.302,0.061-0.442,0.091-0.539c0.143-0.451,0.692-0.925,0.698-0.929
		c-0.011,0.007-0.028,0.021-0.052,0.043c0.062-0.06,0.274-0.305,0.392-0.446c0.074-0.24,0.24-0.774,0.395-1.276
		c0.079-0.603,0.559-0.891,0.727-0.99l0.029-0.02c0.021-0.012,1.854-1.111,2.283-1.334c0.021-0.023,0.046-0.055,0.077-0.091
		l0.029-0.035c0.073-0.088,0.196-0.306,0.258-0.429l0.932-2.047c0.164-0.637,0.216-0.819,0.247-0.903
		c0.012-0.051,0.031-0.158,0.031-0.233c0-0.287,0.085-0.824,0.656-1.19c0.16-0.103,0.507-0.263,0.698-0.349
		c0.444-0.192,0.968-0.426,1.124-0.505l0.004-0.003c0.002-0.001,0.006-0.003,0.008-0.005c-0.014-0.03-0.021-0.057-0.028-0.077
		c-0.054-0.158-0.121-0.39-0.126-0.654c-0.008-0.459,0.209-0.818,0.589-0.991c0.021-0.022,0.041-0.046,0.059-0.065
		c0.027-0.027,0.052-0.054,0.074-0.076c0.07-0.194,0.183-0.328,0.24-0.397c0.01-0.011,0.006-0.004-0.001,0.01
		c0.082-0.14,0.181-0.243,0.283-0.319c0.072-0.265,0.257-0.555,0.631-0.691c0.013-0.027,0.025-0.055,0.043-0.083
		c0.04-0.069,0.084-0.128,0.126-0.175c0.158-0.375,0.514-0.629,0.736-0.73c0.022-0.01,0.044-0.02,0.063-0.027
		c-0.061-0.092-0.116-0.191-0.158-0.298c-0.096-0.243-0.184-0.668,0.155-1.532c0.014-0.09,0.021-0.281,0.019-0.42
		c-0.013-0.021-0.026-0.043-0.041-0.065c-0.097-0.151-0.207-0.322-0.279-0.497c-0.278-0.669,0.149-1.168,0.292-1.332
		c0.015-0.018,0.028-0.034,0.043-0.052c0.123-0.181,0.255-0.393,0.282-0.444c0.107-0.201,0.354-0.512,0.867-0.577
		c0.229-0.188,0.527-0.36,0.777-0.489c0.294-0.152,0.92-0.318,1.317-0.357c-0.04-0.198-0.017-0.407,0.078-0.591
		c0.139-0.275,0.405-0.464,0.713-0.496l1.072-0.11l0.198-0.24c0.016-0.019,0.03-0.033,0.044-0.051
		c0.015-0.019,0.028-0.037,0.042-0.055l0.303-0.367l-0.108-0.381c-0.081-0.288-0.017-0.596,0.176-0.826l0.94-1.129
		c0.021-0.025,0.046-0.052,0.07-0.076l0.136-0.127c0.03-0.066,0.07-0.129,0.12-0.188l0.4-0.48c0.108-0.13,0.251-0.227,0.411-0.279
		l0.758-0.25c0.273-0.091,0.571-0.046,0.806,0.118c0.003,0.003,0.069,0.05,0.134,0.093c0.102,0.037,0.198,0.094,0.285,0.168
		c0.151,0.099,0.809,0.407,2.386,0.979c0.029,0.012,0.06,0.024,0.09,0.038c0.031,0.008,0.061,0.017,0.091,0.027
		c0.08,0.028,0.152,0.055,0.214,0.078l1.282-0.422c0.333-0.109,0.701-0.017,0.941,0.24l0.454,0.484
		c0.005,0.004,0.009,0.01,0.014,0.014c0.005,0.006,0.01,0.011,0.014,0.016l0.209,0.224c0.021,0.021,0.039,0.044,0.059,0.067
		c0.022,0.02,0.044,0.041,0.063,0.063l0.083,0.087l0.644-0.317c0.29-0.145,0.636-0.121,0.904,0.06
		c0.145,0.097,0.254,0.23,0.322,0.384l0.159-0.198c0.309-0.387,0.873-0.452,1.263-0.146l0.236,0.185
		c0.25,0.196,0.379,0.51,0.339,0.825c-0.029,0.231-0.013,0.396,0.028,0.513l0.421-0.396c0.021-0.063,0.043-0.123,0.06-0.175
		c-0.261-0.842-0.408-1.657-0.438-2.431c-0.9-0.456-1.439-0.973-1.644-1.573c-0.191-0.566-0.003-0.988,0.06-1.104
		c0.039-0.072,0.087-0.139,0.144-0.198l0.512-0.532c-0.061-0.052-0.115-0.112-0.162-0.182c-0.015-0.021-0.045-0.068-0.057-0.092
		c-0.034-0.053-0.061-0.11-0.082-0.168c-0.042-0.072-0.077-0.152-0.098-0.237c-0.096-0.373,0.006-0.75,0.268-1.01
		c0.485-0.478,1.202-0.304,1.698-0.172c0.385-0.099,0.516-0.336,0.545-0.398l0.039-0.237c-0.149-0.597,0.019-1.133,0.06-1.248
		c0.117-0.334,0.42-0.569,0.772-0.601l0.276-0.024l0.056-0.392c0.053-0.379,0.339-0.68,0.708-0.758
		c0.046-0.151,0.131-0.291,0.252-0.401c0.102-0.096,0.184-0.479-0.01-1.143c-0.148-0.506,0.113-0.826,0.232-0.941
		c0.033-0.031,0.068-0.061,0.106-0.087c0.414-0.291,0.452-0.719,0.455-0.767c0.002-0.021,0.004-0.045,0.007-0.067
		c-0.266-0.212-0.374-0.452-0.408-0.67c-0.139-0.083-0.339-0.184-0.542-0.272c-0.467,0.07-0.907,0.063-1.139,0.061H81.49
		c-0.172,0.023-0.352-0.004-0.517-0.085c-0.118-0.058-0.217-0.138-0.297-0.233c-0.838-0.943-3.422,0.438-4.478,1.215
		c-0.01,0.007-0.018,0.014-0.027,0.02c-0.019,0.018-0.035,0.033-0.055,0.051c-1.424,1.192-3.168,1.475-4.082,1.536
		c-0.021,0.001-0.058,0.003-0.086,0.003l-0.036,0.001c-0.143,0.005-0.285,0.009-0.419,0.013c-0.446,0.02-0.831-0.311-0.908-0.75
		c-0.033-0.196-0.002-0.391,0.082-0.558c-0.404-0.194-0.957-0.354-1.153-0.403c-0.18-0.045-0.342-0.145-0.464-0.285
		c-0.432-0.498-0.646-0.989-0.637-1.465c-0.106-0.063-0.285-0.151-0.575-0.254L67.8,5.619c-0.011-0.004-0.022-0.007-0.033-0.011
		c-0.099-0.034-0.198-0.065-0.293-0.095c-0.008-0.002-0.016-0.004-0.023-0.006c-0.004-0.002-0.007-0.003-0.009-0.004
		c-0.252-0.074-0.48-0.133-0.636-0.172c-0.165-0.042-0.241-0.06-0.32-0.092c-0.282-0.111-0.49-0.355-0.554-0.653
		c-0.016-0.077-0.038-0.116-0.05-0.125c0-0.001-0.001-0.001-0.001-0.002c-0.005-0.003-0.019-0.009-0.042-0.016
		c-0.007-0.002-0.016-0.004-0.023-0.007c-0.084-0.016-0.179-0.006-0.209,0c-0.103,0.021-0.202,0.023-0.303,0.009
		c-0.081-0.003-0.221-0.002-0.314-0.002c-0.635,0-1.248-0.636-1.254-0.642c-0.148-0.168-0.255-0.349-0.322-0.557
		c-0.037-0.02-0.069-0.035-0.101-0.05c-0.1-0.048-0.205-0.099-0.307-0.167c-0.052-0.034-0.193-0.137-0.341-0.247
		c-0.115-0.085-0.237-0.175-0.315-0.229c-0.14-0.099-0.249-0.221-0.337-0.347c-0.166,0.103-0.426,0.222-0.737,0.174
		c-0.205,0.103-0.426,0.144-0.664,0.125c-0.096-0.007-0.225-0.028-0.359-0.085c-0.229,0.251-0.561,0.36-0.988,0.321h-0.002
		c-0.132,0.101-0.315,0.201-0.548,0.229c-0.408,0.465-0.824,0.532-1.107,0.51c-0.211-0.02-0.369-0.103-0.508-0.176
		c-0.034-0.019-0.07-0.039-0.104-0.055c-0.127-0.033-0.545-0.12-0.707-0.152c-0.088-0.02-0.164-0.035-0.221-0.047
		c-0.054-0.007-0.184-0.01-0.264,0.002l-0.063,0.01c-0.212,0.031-0.412,0.06-0.666,0.016c-0.217-0.01-1.002,0.044-1.168,0.061
		c-0.215,0.037-0.61,0.09-0.775,0.09c-0.106,0.002-0.759,0.027-1.174,0.043c-0.102,0.005-0.189,0.008-0.258,0.011
		c-0.056,0.056-0.127,0.132-0.157,0.171c-0.088,0.119-0.196,0.215-0.309,0.29c-0.013,0.033-0.028,0.067-0.047,0.103
		c-0.278,0.569-0.987,0.834-1.376,0.834H49.65c-0.002,0.289-0.084,0.481-0.126,0.58c-0.102,0.238-0.296,0.422-0.545,0.516
		c-0.422,0.158-0.927,0.013-1.136-0.088c-0.021-0.008-0.05-0.021-0.083-0.034c-0.027,0.022-0.055,0.045-0.083,0.067
		c-0.027,0.074-0.063,0.168-0.122,0.267l-0.037,0.062c-0.071,0.115-0.179,0.293-0.219,0.354c-0.017,0.024-0.082,0.127-0.169,0.25
		c0.008,0.014,0.015,0.028,0.021,0.042c0.074,0.043,0.161,0.096,0.244,0.141c0.133,0.07,0.422,0.244,0.614,0.521
		c0.247,0.358,0.224,0.79,0.208,1.104l-0.002,0.054c0.006,0.039,0.019,0.101,0.033,0.156c0.123,0.186,0.211,0.348,0.255,0.522
		c0.001,0.007,0.15,0.675,0.033,1.071c-0.01,0.035-0.026,0.121-0.039,0.198c0.048,0.105,0.101,0.241,0.113,0.408
		c0.022,0.252-0.049,0.466-0.132,0.626c0.013,0.115,0.009,0.247-0.028,0.389c-0.013,0.051-0.028,0.099-0.049,0.146
		c0.001,0.214-0.07,0.424-0.209,0.597c-0.235,0.295-0.569,0.373-0.794,0.395c-0.165,0.121-0.334,0.24-0.499,0.332
		c-0.039,0.105-0.09,0.227-0.158,0.34c-0.103,0.176-0.233,0.312-0.351,0.415c-0.01,0.055-0.024,0.116-0.045,0.179
		c-0.021,0.064-0.05,0.128-0.085,0.191c0.127,0.104,0.237,0.205,0.323,0.34c0.323,0.51,0.077,1.287,0.075,1.294
		c-0.07,0.196-0.381,0.766-0.519,0.953c-0.174,0.237-0.798,0.675-1.199,0.78v0.002c-0.089,0.023-0.354,0.11-0.519,0.164
		l-0.151,0.049c-0.263,0.082-1.681,0.134-1.936,0.087c-0.042-0.007-0.106-0.013-0.174-0.019c-0.02-0.002-0.039-0.004-0.059-0.006
		c0.039,0.067,0.066,0.133,0.086,0.189c0.013,0.027,0.047,0.103,0.081,0.176c0.102,0.218,0.144,0.308,0.169,0.426
		c0.02,0.084,0.025,0.161,0.024,0.229c0.099,0.05,0.206,0.11,0.304,0.188c0.14,0.112,0.576,0.539,0.286,1.312l0.003-0.012
		c-0.14,0.422-0.767,0.922-0.774,0.926l-0.361,0.268c-0.267,0.23-0.383,0.311-0.531,0.366c-0.094,0.036-0.175,0.049-0.235,0.059
		c-0.017,0.003-0.043,0.005-0.068,0.013c-0.386,0.203-0.709,0.176-0.886,0.162c-0.059-0.005-0.059-0.005-0.125,0.012
		c-0.028,0.005-0.051,0.013-0.069,0.02c-0.119,0.04-0.249,0.079-0.427,0.094c0.01,0.147,0.008,0.322-0.031,0.487
		c-0.014,0.058-0.119,0.365-0.295,0.647c0.016,0.187,0.004,0.328,0.003,0.332c-0.041,0.433-0.354,0.801-0.665,0.974l-0.012,0.009
		c0.015,0.114,0.019,0.23,0.01,0.35c-0.011,0.164-0.033,0.402-0.06,0.573c0,0.003,0,0.009,0.001,0.015
		c0.108,0.346,0.065,0.849,0.065,0.854c-0.008,0.073-0.025,0.14-0.045,0.202c0.09,0.23,0.084,0.484-0.017,0.715
		c-0.091,0.212-0.263,0.383-0.434,0.51c-0.068,0.277-0.248,0.521-0.504,0.686c-0.051,0.092-0.103,0.181-0.151,0.249
		c-0.088,0.125-0.402,0.548-0.784,0.76c-0.422,0.236-0.771,0.218-1.028,0.174c-0.347-0.058-0.659-0.306-0.864-0.508
		c-0.01,0.003-0.021,0.007-0.031,0.01c-0.371,0.113-0.794-0.004-1.095-0.28c-0.084-0.002-0.176-0.004-0.28-0.021
		c-0.08-0.012-0.156-0.031-0.229-0.059c-0.172,0.203-0.412,0.465-0.553,0.559c-0.122,0.081-0.312,0.152-0.503,0.205
		c0.025,0.096,0.039,0.207,0.031,0.333c-0.014,0.278-0.133,0.669-0.426,0.932c-0.127,0.114-0.363,0.286-0.929,0.44
		c-0.091,0.025-0.255,0.098-0.343,0.137c-0.092,0.04-0.16,0.068-0.192,0.079c-0.091,0.03-0.174,0.045-0.556,0.11
		c-0.097,0.017-0.188,0.031-0.247,0.041c-0.228,0.092-0.42,0.107-0.579,0.085c-0.101,0.002-0.24,0.016-0.24,0.016
		c-0.067,0.006-0.125,0.004-0.191-0.004c-0.256-0.032-0.709-0.09-1.036-0.312c-0.04,0.029-0.079,0.057-0.119,0.082
		c-0.111,0.233-0.316,0.478-0.523,0.66c-0.147,0.473-0.6,0.743-0.953,0.836c-0.006,0.036-0.011,0.063-0.015,0.08
		c-0.02,0.075-0.056,0.194-0.212,0.674c-0.013,0.034-0.022,0.066-0.032,0.097c0.28,0.31,0.34,0.821,0.156,1.454l-0.01,0.06
		c-0.052,0.265-0.099,0.482-0.195,0.666c-0.021,0.039-0.042,0.075-0.064,0.108c0.186,0.205,0.377,0.512,0.359,0.884
		c-0.041,0.828-1.225,1.272-1.237,1.274c-0.102,0.029-1.629,0.5-2.562,0.789c-0.012,0.004-0.024,0.006-0.035,0.01
		c-0.974,0.258-2.082,0.564-2.305,0.642c-0.565,0.258-1.348,0.017-1.438-0.013c-0.303-0.098-0.832-0.26-1.041-0.313
		c-0.094,0.012-0.265,0.034-0.411,0.053c-0.088,0.012-0.159,0.021-0.221,0.028c-0.176,0.066-0.563,0.224-0.788,0.321
		c-0.087,0.165-0.246,0.41-0.554,0.559c-0.274,0.133-0.591,0.139-0.87,0.016c-0.172-0.075-0.307-0.188-0.409-0.305
		c-0.205-0.037-0.473-0.084-0.677-0.119c-0.591-0.103-0.861-0.151-1.014-0.192c-0.031,0.003-0.08,0.014-0.107,0.024
		c-0.084,0.033-0.258,0.103-0.965,0.153c-0.021,0.002-0.039,0.003-0.061,0.003l-3.426,0.021c-0.102,0.008-0.227-0.021-0.332-0.062
		l-3.888-1.506c0.013,0.023,0.024,0.048,0.038,0.069c0.177,0.182,0.454,0.541,0.437,0.999c-0.001,0.035-0.003,0.068-0.006,0.1
		c0.065,0.118,0.126,0.266,0.147,0.436c0.008,0.021,0.018,0.043,0.024,0.063c0.06,0.145,0.125,0.309,0.125,0.518
		c0.068,0.054,0.138,0.115,0.205,0.191c0.155,0.18,0.215,0.373,0.237,0.529c0.004,0.005,0.009,0.009,0.013,0.014
		c0.144,0.153,0.222,0.318,0.275,0.428l0.003,0.006c0.029,0.028,0.084,0.078,0.108,0.098c0.077,0.051,0.198,0.131,0.578,0.646
		c0.134,0.102,0.273,0.207,0.347,0.258c0.074,0.031,0.2,0.08,0.339,0.133c0.71,0.275,0.796,0.313,0.918,0.4
		c0.021,0.014,0.102,0.056,0.143,0.073c0.248,0.069,0.742,0.313,0.943,0.569c0.026,0.031,0.096,0.107,0.172,0.189
		c0.174-0.056,0.362-0.06,0.547-0.009c0.349,0.097,0.63,0.384,0.733,0.749c0.058,0.205,0.046,0.396,0.037,0.533
		c-0.002,0.023-0.004,0.044-0.004,0.063c0,0.153-0.033,0.299-0.073,0.467c-0.014,0.053-0.026,0.107-0.036,0.156
		c0.003,0.024,0.005,0.053,0.008,0.079c0.01,0.11,0.022,0.224,0.021,0.335c0.021,0.144,0.106,0.562,0.18,0.898
		c0.012,0.055,0.018,0.109,0.02,0.166c0,0,0.028,0.988,0.028,1.047c0,0.196-0.104,0.586-0.149,0.74
		c0.01-0.003,0.02-0.004,0.028-0.008c0.312-0.097,1.086-0.017,1.343,0.104l0.043,0.022c0.334,0.066,0.526,0.248,0.629,0.393
		c0.156,0.221,0.209,0.479,0.156,0.77c-0.018,0.183-0.084,0.334-0.126,0.422c-0.021,0.07-0.06,0.164-0.125,0.26
		c0.027,0.072,0.056,0.154,0.09,0.249c0.063,0.171,0.118,0.332,0.149,0.403c0.225,0.448,0.083,0.806-0.023,0.977
		c-0.126,0.203-0.375,0.443-0.853,0.453C11.069,53.892,11.04,53.96,11,54.027c-0.152,0.259-0.412,0.431-0.727,0.482l-0.017,0.008
		c-0.126,0.051-0.299,0.121-0.512,0.121c-0.125,0-0.235-0.024-0.353-0.05c-0.013-0.003-0.026-0.006-0.04-0.009
		c-0.001,0.001-0.003,0.001-0.005,0.001l-0.022,0.003c-0.267,0.08-0.564,0.047-0.801-0.019c-0.003,0-0.005,0.001-0.009,0.001
		c-0.084,0.018-0.17,0.035-0.262,0.043c-0.019,0.006-0.035,0.014-0.054,0.021c-0.089,0.032-0.178,0.063-0.258,0.084
		c-0.048,0.013-0.108,0.026-0.178,0.042c-0.115,0.026-0.256,0.057-0.357,0.096c-0.109,0.043-0.204,0.072-0.293,0.093
		c-0.004,0.008-0.009,0.015-0.012,0.022c-0.038,0.338-0.189,0.551-0.35,0.681c-0.233,0.386-0.723,0.563-1.1,0.563
		c-0.157,0-0.32-0.033-0.475-0.098c-0.064,0.085-0.136,0.156-0.204,0.217c0.001,0.128-0.009,0.27-0.039,0.391
		c-0.067,0.287-0.288,0.571-0.533,0.78c-0.012,0.069-0.029,0.153-0.054,0.257c-0.011,0.043-0.025,0.086-0.041,0.129
		c0,0-0.001,0.004-0.003,0.006c0.021,0.08,0.037,0.172,0.037,0.279c0,0.201-0.06,0.364-0.114,0.508
		c0.171,0.439,0.065,0.791-0.02,0.97l-0.036,0.083c-0.032,0.076-0.064,0.147-0.097,0.217c0.069,0.045,0.139,0.102,0.202,0.173
		c0.305-0.384,0.793-0.384,0.969-0.384c0.04,0,0.079,0.001,0.111-0.002c0.199-0.047,0.475-0.053,0.763,0.115
		c0.015-0.004,0.027-0.008,0.042-0.012c0.115-0.121,0.237-0.188,0.298-0.216c0.395-0.184,0.941-0.075,1.048-0.051
		c0.167,0.037,0.279,0.083,0.354,0.114L7.896,59.7c0.048,0.014,0.094,0.03,0.134,0.045c0.26,0.027,0.652,0.099,0.656,0.099
		c0.032,0.006,0.094,0.015,0.161,0.023c0.143,0.02,0.25,0.035,0.339,0.053c0.177-0.098,0.411-0.152,0.733-0.158
		c0.204,0.004,0.44,0.03,0.678,0.187c0.048,0.017,0.109,0.036,0.153,0.048c0.167-0.255,0.45-0.469,0.771-0.576
		c0.114-0.037,0.61-0.176,0.93-0.152c0.09,0.005,0.323,0.037,0.517,0.071c0.028-0.064,0.065-0.126,0.108-0.184
		c0.1-0.131,0.383-0.425,0.899-0.354c0.107,0.014,0.199,0.043,0.28,0.076c0.178-0.019,0.46,0.004,0.734,0.229
		c0.122,0.091,0.361,0.318,0.385,0.703c0.166,0.041,0.3,0.104,0.398,0.16c0.183-0.063,0.379-0.08,0.592-0.048
		c0.017,0.003,0.032,0.003,0.049,0.005c0.316-0.166,0.653-0.152,0.807-0.146c0.073,0.001,0.271,0.004,0.459,0.006
		c0.158,0.002,0.308,0.004,0.345,0.004c0.204,0,0.352,0.047,0.472,0.096c0.121-0.022,0.234-0.031,0.349-0.029
		c0.162-0.145,0.406-0.26,0.775-0.273l0.055-0.002c0.177-0.048,0.304-0.046,0.437-0.038l0.056,0.003
		c0.008,0.001,0.016,0.001,0.022,0.001c0.487-0.192,0.868-0.062,1.086,0.099c0.11-0.025,0.227-0.031,0.342-0.017
		c0.32-0.223,0.695-0.23,0.743-0.23c0.028,0,0.062,0.002,0.1,0.005c0.019-0.018,0.037-0.035,0.054-0.049
		c0.071-0.094,0.15-0.17,0.238-0.23c0.118-0.162,0.289-0.294,0.513-0.393l-0.004,0.004c0.121-0.073,0.219-0.117,0.303-0.149
		c0.118-0.073,0.324-0.178,0.605-0.178c0.159,0,0.308,0.032,0.438,0.094c0.169,0.007,0.309,0.056,0.416,0.115
		c0.295-0.04,0.58,0.047,0.79,0.242c0.134,0.125,0.281,0.331,0.297,0.646c0.013,0.018,0.025,0.033,0.036,0.052
		c0.111,0.127,0.296,0.356,0.329,0.698c0.006,0.084,0.005,0.166-0.005,0.245c0.078,0.092,0.151,0.2,0.238,0.334l0.024,0.037
		c0.197,0.253,0.242,0.6,0.242,0.857c0.003,0.187-0.041,0.421-0.221,0.627c0.049,0.009,0.099,0.022,0.149,0.039
		c0.123,0.029,0.23,0.076,0.322,0.135c0.132-0.02,0.325-0.027,0.519,0.003c0.147-0.034,0.297-0.041,0.43-0.029
		c0.114,0.011,0.213,0.035,0.297,0.063c0.129-0.011,0.273,0.001,0.43,0.061c0.02,0.001,0.037,0.003,0.056,0.005l0.222,0.023
		c0.114,0.013,0.225,0.047,0.327,0.101c0,0,0.174,0.093,0.284,0.153c0.473,0.258,0.66,0.766,0.462,1.24
		c-0.042,0.109-0.103,0.209-0.183,0.304c0.006,0.099-0.005,0.213-0.043,0.338c-0.011,0.039-0.024,0.074-0.04,0.108
		c0.003,0.033,0.005,0.068,0.005,0.105c0.004,0.025,0.014,0.123,0.021,0.17c0.006,0.023,0.021,0.133,0.035,0.232l0.011,0.08
		c0.033,0.171,0.026,0.322-0.002,0.451c0.007,0.078,0.007,0.16,0,0.246c0.035,0.115,0.046,0.224,0.043,0.32
		c0.023,0.014,0.047,0.028,0.07,0.045c0.142-0.027,0.292-0.025,0.442,0.012c0.121,0.031,0.415,0.137,0.588,0.453
		C31.214,67.011,31.228,67.011,31.245,67.011 M28.158,66.972c0,0.004-0.002,0.008-0.002,0.012L28.158,66.972z M36.129,66.343
		c-0.001,0-0.001,0.002-0.001,0.002S36.128,66.343,36.129,66.343 M46.005,66.295C46,66.298,45.998,66.3,45.992,66.302
		C45.998,66.3,46,66.298,46.005,66.295 M43.451,66.091c-0.011,0.01-0.02,0.018-0.029,0.024
		C43.431,66.109,43.44,66.101,43.451,66.091 M45.669,65.976c0,0.002-0.006,0.02-0.019,0.051
		C45.658,66.011,45.665,65.994,45.669,65.976 M39.902,65.517c0,0.002,0.001,0.002,0.001,0.002S39.902,65.519,39.902,65.517
		 M28.561,65.107c0,0-0.001,0.001-0.002,0.001C28.56,65.108,28.561,65.107,28.561,65.107 M28.183,65.004L28.183,65.004
		L28.183,65.004z M28.917,64.492c0.001,0,0.002,0.001,0.003,0.001C28.918,64.493,28.917,64.492,28.917,64.492 M25.775,64.318h-0.002
		H25.775z M27.292,64.257l0.025,0.012L27.292,64.257z M27.929,64.031l-0.006,0.009L27.929,64.031z M28.559,64.022L28.559,64.022
		c0.013-0.017,0.026-0.033,0.038-0.05C28.585,63.989,28.572,64.004,28.559,64.022 M27.13,63.832L27.13,63.832L27.13,63.832z
		 M27.131,63.83C27.131,63.831,27.131,63.831,27.131,63.83C27.131,63.831,27.131,63.831,27.131,63.83 M27.132,63.829L27.132,63.829
		L27.132,63.829z M27.133,63.828L27.133,63.828L27.133,63.828z M27.136,63.825C27.135,63.825,27.135,63.825,27.136,63.825
		C27.135,63.825,27.135,63.825,27.136,63.825 M29.351,63.785v0.002V63.785z M46.207,62.985c0.003,0.002,0.006,0.005,0.008,0.008
		C46.212,62.99,46.209,62.987,46.207,62.985 M28.768,62.704L28.768,62.704L28.768,62.704z M45.995,62.501l0.009,0.021
		C46,62.515,45.998,62.507,45.995,62.501 M5.833,62.15c-0.002,0.001-0.003,0.001-0.005,0.001C5.83,62.151,5.831,62.151,5.833,62.15
		 M25.31,61.988c0.021,0.027,0.044,0.054,0.071,0.08C25.353,62.041,25.331,62.015,25.31,61.988 M10.973,61.873
		c0.005,0.003,0.01,0.006,0.017,0.01C10.984,61.879,10.978,61.875,10.973,61.873 M10.582,61.798
		c0.028,0.004,0.052,0.004,0.067,0.004C10.628,61.802,10.604,61.8,10.582,61.798 M25.199,61.772c0,0.001,0.002,0.002,0.004,0.003
		C25.201,61.774,25.199,61.773,25.199,61.772 M9.551,61.732c-0.038,0.014-0.076,0.025-0.114,0.035
		C9.492,61.757,9.53,61.74,9.551,61.732 M4.36,61.724c-0.002,0.004-0.004,0.008-0.007,0.012C4.355,61.733,4.357,61.728,4.36,61.724
		 M12.196,61.632c-0.01,0.012-0.021,0.022-0.031,0.033C12.174,61.656,12.185,61.644,12.196,61.632 M18.023,61.597L18.023,61.597
		L18.023,61.597z M3.451,61.593c0.012,0.002,0.021,0.002,0.029,0.002C3.47,61.595,3.46,61.595,3.451,61.593 M14.997,61.574h0.002
		H14.997z M7.852,61.542c0.009,0,0.017-0.001,0.024,0H7.852z M11.998,61.431c-0.01,0.008-0.019,0.016-0.026,0.024
		C11.979,61.447,11.988,61.439,11.998,61.431 M15.669,61.349c0.002,0.004,0.003,0.006,0.004,0.008
		C15.672,61.355,15.671,61.353,15.669,61.349 M20.074,61.351h0.005H20.074z M23.469,61.177c0.001,0,0.002,0,0.003,0
		C23.471,61.177,23.47,61.177,23.469,61.177 M23.742,61.152l-0.006,0.002C23.738,61.153,23.74,61.152,23.742,61.152 M10.446,61.019
		c-0.001,0.005-0.003,0.012-0.005,0.018C10.443,61.031,10.445,61.024,10.446,61.019 M22.76,61.019
		c-0.004,0.004-0.01,0.01-0.019,0.017L22.76,61.019z M15.212,60.593c-0.019,0.045-0.037,0.086-0.059,0.123
		C15.177,60.677,15.196,60.636,15.212,60.593 M10.649,59.993h0.002H10.649z M16.293,59.918h0.021H16.293z M13.567,59.851
		L13.567,59.851c0.003-0.006,0.007-0.014,0.012-0.021C13.574,59.837,13.57,59.843,13.567,59.851 M21.457,59.767
		c-0.001,0-0.001,0-0.002,0C21.456,59.767,21.456,59.767,21.457,59.767 M7.876,59.734c0.007,0,0.013,0,0.019,0.001
		C7.889,59.734,7.883,59.734,7.876,59.734 M21.764,59.634c-0.004,0.002-0.009,0.002-0.014,0.002
		C21.757,59.636,21.763,59.634,21.764,59.634 M2.356,59.365c-0.002,0.002-0.003,0.003-0.003,0.005
		C2.353,59.368,2.354,59.367,2.356,59.365 M14.511,59.019L14.511,59.019L14.511,59.019z M2.576,58.872
		c-0.002,0.001-0.002,0.003-0.002,0.004C2.574,58.875,2.574,58.873,2.576,58.872 M40.63,56.007L40.63,56.007L40.63,56.007z
		 M8.152,54.614H8.15H8.152z M9.539,54.548H9.537H9.539z M10.149,54.523L10.149,54.523L10.149,54.523z M8.235,54.452
		c0.007,0.003,0.015,0.006,0.021,0.01C8.249,54.458,8.242,54.455,8.235,54.452 M5.625,53.941c-0.002,0.002-0.004,0.004-0.006,0.007
		C5.622,53.945,5.624,53.943,5.625,53.941 M8.15,52.806c-0.008,0-0.018,0-0.028,0C8.131,52.806,8.141,52.806,8.15,52.806
		 M9.12,52.789L9.12,52.789L9.12,52.789z M9.162,50.066c-0.002,0-0.002,0.001-0.002,0.001S9.16,50.066,9.162,50.066 M45.955,49.153
		c-0.004,0.001-0.008,0.002-0.011,0.002C45.947,49.155,45.951,49.154,45.955,49.153 M40.187,48.577
		c-0.002,0.034-0.005,0.106,0.01,0.197C40.186,48.709,40.184,48.644,40.187,48.577 M41.982,48.484
		c0.01,0.068,0.01,0.158-0.001,0.263C41.992,48.679,41.999,48.588,41.982,48.484 M9.703,46.958
		c-0.002,0.017-0.002,0.034-0.004,0.052C9.701,46.998,9.703,46.98,9.703,46.958 M41.593,46.886c-0.02,0.011-0.037,0.022-0.053,0.034
		C41.564,46.904,41.583,46.892,41.593,46.886 M6.883,45.537c0.015,0.005,0.03,0.008,0.042,0.01
		C6.912,45.543,6.897,45.541,6.883,45.537 M6.871,45.472c0.016,0.02,0.03,0.037,0.046,0.054C6.892,45.497,6.875,45.478,6.871,45.472
		 M6.162,45.19c0.014,0.009,0.03,0.022,0.057,0.038C6.193,45.211,6.174,45.199,6.162,45.19 M7.311,43.781
		c0.01,0.002,0.021,0.004,0.032,0.007C7.332,43.785,7.32,43.783,7.311,43.781 M4.009,43.772c0.002,0.001,0.004,0.003,0.007,0.005
		C4.013,43.775,4.011,43.773,4.009,43.772 M4.046,40.56v0.002V40.56z M12.154,40.185C12.154,40.185,12.154,40.185,12.154,40.185
		S12.154,40.185,12.154,40.185 M19.681,40.134c-0.015,0.008-0.03,0.015-0.045,0.021C19.655,40.148,19.67,40.14,19.681,40.134
		 M13.594,39.976c0.003,0.009,0.006,0.019,0.009,0.027C13.6,39.993,13.597,39.983,13.594,39.976 M1.013,38.634
		c0,0.006,0,0.01,0.001,0.016C1.013,38.644,1.013,38.64,1.013,38.634 M11.439,38.536c-0.003,0.001-0.006,0.003-0.01,0.004
		C11.433,38.539,11.436,38.537,11.439,38.536 M0.792,38.093c0.005,0.006,0.008,0.012,0.012,0.015
		C0.8,38.103,0.796,38.097,0.792,38.093 M24.068,36.972L24.068,36.972c0.01-0.002,0.015-0.004,0.019-0.004
		C24.081,36.97,24.074,36.972,24.068,36.972 M23.608,36.319c-0.001,0.002-0.001,0.004-0.002,0.006
		C23.607,36.323,23.607,36.321,23.608,36.319 M24.423,35.685c0.031,0.015,0.063,0.029,0.097,0.043
		C24.496,35.718,24.462,35.704,24.423,35.685 M57.044,35.48c-0.015,0.01-0.025,0.019-0.033,0.025L57.044,35.48z M25.136,34.026
		l0.006,0.003L25.136,34.026z M59.389,34c0,0.007-0.001,0.013-0.001,0.021C59.388,34.013,59.389,34.007,59.389,34 M26.474,32.781
		L26.474,32.781L26.474,32.781z M60.691,32.249c0,0.003,0,0.007,0.001,0.011C60.691,32.255,60.691,32.251,60.691,32.249
		 M26.783,32.134c-0.004,0.002-0.007,0.002-0.011,0.004C26.776,32.136,26.779,32.136,26.783,32.134 M28.326,31.892
		c0.075,0.074,0.153,0.127,0.229,0.164C28.449,32.003,28.374,31.939,28.326,31.892 M61.559,30.494
		c0.005,0.007,0.011,0.016,0.017,0.021C61.57,30.507,61.564,30.5,61.559,30.494 M32.117,29.702c0,0.001,0,0.002,0,0.002
		S32.117,29.703,32.117,29.702 M37.322,29.037c-0.003,0.001-0.006,0.002-0.01,0.003C37.316,29.039,37.319,29.038,37.322,29.037
		 M30.469,28.958v0.002V28.958z M30.44,28.882c-0.002,0-0.004,0.002-0.006,0.004L30.44,28.882z M37.644,28.478
		c-0.023,0.009-0.039,0.015-0.041,0.016C37.617,28.489,37.63,28.483,37.644,28.478 M31.574,28.259h-0.005H31.574z M35.24,27.394
		h0.002H35.24z M36.82,26.517c0.001,0.004,0.004,0.009,0.004,0.013C36.824,26.526,36.821,26.521,36.82,26.517 M60.669,26.257
		c-0.001,0.002-0.002,0.004-0.004,0.006C60.667,26.261,60.668,26.259,60.669,26.257 M63.022,25.364v0.002V25.364z M63.199,25.105
		L63.199,25.105z M38.472,25.045c-0.002,0.001-0.004,0.001-0.005,0.003C38.468,25.046,38.47,25.046,38.472,25.045 M38.941,24.05
		c-0.006,0.004-0.012,0.01-0.019,0.014C38.929,24.06,38.935,24.054,38.941,24.05 M37.816,23.36c-0.046,0.019-0.11,0.043-0.171,0.091
		C37.708,23.411,37.767,23.379,37.816,23.36 M65.403,23.437c-0.001,0-0.002,0-0.003,0C65.401,23.437,65.402,23.437,65.403,23.437
		 M39.103,23.116c0.009,0.017,0.019,0.033,0.026,0.051C39.122,23.149,39.112,23.132,39.103,23.116 M80.158,23.013
		c0.041,0.043,0.087,0.084,0.14,0.121C80.247,23.099,80.201,23.058,80.158,23.013 M41.109,22.249
		C41.109,22.249,41.108,22.249,41.109,22.249C41.108,22.249,41.109,22.249,41.109,22.249 M69.633,19.857
		c0.007,0.007,0.013,0.014,0.021,0.021C69.647,19.871,69.641,19.864,69.633,19.857 M40.258,17.558
		c0.002,0.002,0.004,0.002,0.005,0.004C40.262,17.56,40.26,17.56,40.258,17.558 M42.641,16.364c0.009,0.001,0.019,0.003,0.029,0.005
		C42.663,16.368,42.652,16.365,42.641,16.364 M79.587,14.939c-0.001,0-0.002,0.001-0.003,0.002
		C79.585,14.94,79.586,14.939,79.587,14.939 M79.59,14.937c-0.001,0-0.002,0-0.003,0.002C79.588,14.937,79.589,14.937,79.59,14.937
		 M79.701,14.876c-0.037,0.018-0.073,0.037-0.11,0.061C79.625,14.915,79.663,14.894,79.701,14.876 M44.365,14.632
		c0.002,0.008,0.006,0.021,0.01,0.034C44.371,14.652,44.367,14.64,44.365,14.632 M46.778,11.981c0,0.001,0,0.001,0.001,0.002
		C46.778,11.982,46.778,11.982,46.778,11.981 M46.803,9.75c-0.005,0.017-0.009,0.03-0.012,0.044
		C46.796,9.773,46.801,9.759,46.803,9.75 M83.757,7.826h0.003H83.757z M68.487,5.835C68.488,5.835,68.488,5.835,68.487,5.835
		C68.488,5.835,68.488,5.835,68.487,5.835 M45.572,5.75c-0.008,0.007-0.017,0.015-0.028,0.024
		C45.552,5.767,45.562,5.759,45.572,5.75 M65.187,4.42C65.187,4.42,65.187,4.42,65.187,4.42S65.187,4.42,65.187,4.42 M48.603,4.048
		c0.007,0.002,0.014,0.006,0.021,0.01C48.617,4.054,48.61,4.05,48.603,4.048 M49.878,3.884c0,0.03-0.003,0.074-0.009,0.127
		C49.875,3.97,49.878,3.927,49.878,3.884 M48.182,3.621L48.182,3.621L48.182,3.621z M51.644,3.284
		c-0.044,0.001-0.072,0.002-0.076,0.002C51.583,3.286,51.608,3.288,51.644,3.284 M55.005,3.064c0.009,0.002,0.021,0.005,0.036,0.008
		C55.029,3.069,55.017,3.067,55.005,3.064 M55.968,3.025c0.019,0.006,0.052,0.017,0.098,0.023
		C56.013,3.037,55.978,3.028,55.968,3.025 M58.601,2.976h-0.008H58.601z M58.603,2.976L58.603,2.976L58.603,2.976z M58.749,2.931
		C58.748,2.931,58.748,2.931,58.749,2.931C58.748,2.931,58.748,2.931,58.749,2.931 M50.125,2.333
		c-0.01,0.012-0.021,0.023-0.029,0.036C50.096,2.369,50.105,2.356,50.125,2.333"/>
	<path fill="#10804F" d="M14.807,44.833c0,0.236-0.048,0.462-0.135,0.668c-0.262,0.617-1.583,2.326-1.583,2.326
		s-1.322-1.709-1.583-2.326c-0.087-0.206-0.136-0.432-0.136-0.67c0-0.949,0.77-1.717,1.719-1.717S14.807,43.883,14.807,44.833
		 M13.089,43.98c-0.424,0-0.769,0.344-0.769,0.768c0,0.423,0.345,0.767,0.769,0.767s0.768-0.344,0.768-0.767
		C13.857,44.324,13.513,43.98,13.089,43.98"/>
	<path fill="#10804F" d="M23.717,48.785c0,0.238-0.048,0.463-0.135,0.669C23.321,50.07,22,51.781,22,51.781
		s-1.322-1.711-1.583-2.328c-0.087-0.206-0.136-0.432-0.136-0.668c0-0.95,0.77-1.719,1.719-1.719S23.717,47.835,23.717,48.785
		 M22,47.931c-0.424,0-0.769,0.344-0.769,0.768s0.345,0.768,0.769,0.768s0.768-0.344,0.768-0.768S22.423,47.931,22,47.931"/>
	<path fill="#10804F" d="M19.777,44.806c0,0.236-0.049,0.463-0.136,0.668c-0.262,0.617-1.583,2.328-1.583,2.328
		s-1.321-1.711-1.582-2.328c-0.087-0.206-0.137-0.432-0.137-0.668c0-0.95,0.771-1.719,1.719-1.719
		C19.007,43.087,19.777,43.857,19.777,44.806 M18.058,43.953c-0.424,0-0.768,0.344-0.768,0.768s0.344,0.768,0.768,0.768
		s0.768-0.344,0.768-0.768S18.482,43.953,18.058,43.953"/>
	<path fill="#10804F" d="M28.854,47.189c0,0.238-0.049,0.464-0.136,0.669c-0.262,0.618-1.582,2.327-1.582,2.327
		s-1.322-1.709-1.583-2.327c-0.087-0.206-0.137-0.431-0.137-0.669c0-0.949,0.771-1.717,1.72-1.717
		C28.083,45.472,28.854,46.241,28.854,47.189 M27.136,46.336c-0.424,0-0.769,0.345-0.769,0.769c0,0.423,0.345,0.767,0.769,0.767
		s0.767-0.344,0.767-0.767C27.903,46.681,27.56,46.336,27.136,46.336"/>
	<path fill="#10804F" d="M30.015,54.845c0,0.238-0.049,0.464-0.136,0.669c-0.262,0.616-1.583,2.327-1.583,2.327
		s-1.321-1.711-1.582-2.327c-0.087-0.206-0.137-0.431-0.137-0.669c0-0.949,0.771-1.719,1.719-1.719
		C29.246,53.126,30.015,53.896,30.015,54.845 M28.296,53.993c-0.424,0-0.768,0.345-0.768,0.769c0,0.423,0.344,0.767,0.768,0.767
		s0.768-0.344,0.768-0.767C29.064,54.337,28.72,53.993,28.296,53.993"/>
	<path fill="#10804F" d="M28.601,41.91c0,0.236-0.048,0.462-0.135,0.668c-0.262,0.617-1.583,2.326-1.583,2.326
		s-1.322-1.709-1.583-2.326c-0.087-0.206-0.135-0.432-0.135-0.67c0-0.948,0.769-1.717,1.718-1.717
		C27.832,40.191,28.601,40.959,28.601,41.91 M26.883,41.056c-0.425,0-0.769,0.344-0.769,0.768s0.344,0.767,0.769,0.767
		c0.424,0,0.768-0.343,0.768-0.767S27.307,41.056,26.883,41.056"/>
	<path fill="#10804F" d="M21.833,43.341c0,0.238-0.048,0.463-0.135,0.669c-0.262,0.616-1.583,2.327-1.583,2.327
		s-1.322-1.711-1.583-2.327c-0.087-0.206-0.136-0.433-0.136-0.669c0-0.95,0.77-1.719,1.719-1.719S21.833,42.392,21.833,43.341
		 M20.115,42.489c-0.424,0-0.769,0.343-0.769,0.767s0.345,0.768,0.769,0.768s0.768-0.344,0.768-0.768S20.539,42.489,20.115,42.489"
		/>
	<path fill="#10804F" d="M17.388,49.427c0,0.238-0.049,0.463-0.136,0.669c-0.262,0.616-1.583,2.327-1.583,2.327
		s-1.321-1.711-1.582-2.327c-0.088-0.206-0.137-0.433-0.137-0.669c0-0.949,0.771-1.719,1.719-1.719
		C16.619,47.708,17.388,48.478,17.388,49.427 M15.669,48.575c-0.424,0-0.768,0.345-0.768,0.769c0,0.423,0.344,0.766,0.768,0.766
		s0.768-0.343,0.768-0.766C16.437,48.919,16.093,48.575,15.669,48.575"/>
	<path fill="#10804F" d="M35.37,40.242c0,0.236-0.048,0.462-0.135,0.668c-0.263,0.617-1.583,2.326-1.583,2.326
		s-1.322-1.709-1.583-2.326c-0.087-0.206-0.136-0.432-0.136-0.67c0-0.948,0.77-1.717,1.719-1.717
		C34.599,38.523,35.37,39.292,35.37,40.242 M33.652,39.388c-0.424,0-0.769,0.344-0.769,0.768s0.345,0.767,0.769,0.767
		s0.767-0.343,0.767-0.767S34.076,39.388,33.652,39.388"/>
	<path fill="#10804F" d="M31.342,36.248c0,0.236-0.048,0.463-0.135,0.668c-0.262,0.617-1.583,2.328-1.583,2.328
		s-1.321-1.711-1.583-2.328c-0.087-0.206-0.136-0.432-0.136-0.668c0-0.95,0.771-1.719,1.719-1.719
		C30.574,34.529,31.342,35.298,31.342,36.248 M29.625,35.394c-0.424,0-0.768,0.344-0.768,0.768s0.344,0.768,0.768,0.768
		s0.768-0.344,0.768-0.768S30.048,35.394,29.625,35.394"/>
	<path fill="#10804F" d="M37.254,50.162c0,0.238-0.048,0.463-0.135,0.669c-0.262,0.616-1.583,2.327-1.583,2.327
		s-1.322-1.711-1.583-2.327c-0.087-0.206-0.136-0.433-0.136-0.669c0-0.95,0.77-1.719,1.719-1.719S37.254,49.212,37.254,50.162
		 M35.537,49.309c-0.424,0-0.769,0.343-0.769,0.767s0.345,0.768,0.769,0.768s0.768-0.344,0.768-0.768S35.96,49.309,35.537,49.309"/>
	<path fill="#10804F" d="M32.709,49.472c0,0.236-0.049,0.462-0.136,0.667c-0.262,0.618-1.583,2.327-1.583,2.327
		s-1.321-1.709-1.582-2.327c-0.087-0.206-0.136-0.431-0.136-0.669c0-0.949,0.77-1.717,1.718-1.717S32.709,48.522,32.709,49.472
		 M30.991,48.618c-0.425,0-0.768,0.345-0.768,0.769c0,0.423,0.343,0.767,0.768,0.767s0.768-0.344,0.768-0.767
		C31.758,48.962,31.416,48.618,30.991,48.618"/>
	<path fill="#10804F" d="M34.427,56.708c0,0.236-0.048,0.462-0.135,0.668c-0.263,0.617-1.583,2.328-1.583,2.328
		s-1.322-1.711-1.583-2.328c-0.087-0.206-0.137-0.432-0.137-0.67c0-0.948,0.771-1.717,1.72-1.717
		C33.658,54.99,34.427,55.758,34.427,56.708 M32.709,55.855c-0.425,0-0.769,0.344-0.769,0.768s0.344,0.767,0.769,0.767
		c0.424,0,0.767-0.343,0.767-0.767S33.133,55.855,32.709,55.855"/>
	<path fill="#10804F" d="M39.198,59.708c0,0.236-0.048,0.462-0.136,0.668c-0.262,0.617-1.582,2.328-1.582,2.328
		s-1.322-1.711-1.583-2.328c-0.087-0.206-0.137-0.432-0.137-0.67c0-0.948,0.771-1.717,1.72-1.717
		C38.427,57.99,39.198,58.758,39.198,59.708 M37.48,58.855c-0.424,0-0.769,0.344-0.769,0.768s0.345,0.767,0.769,0.767
		s0.767-0.343,0.767-0.767S37.904,58.855,37.48,58.855"/>
	<path fill="#10804F" d="M47.37,41.449c0,0.236-0.048,0.462-0.135,0.667c-0.262,0.618-1.583,2.327-1.583,2.327
		s-1.322-1.709-1.583-2.327c-0.087-0.206-0.136-0.431-0.136-0.669c0-0.949,0.77-1.717,1.719-1.717S47.37,40.499,47.37,41.449
		 M45.652,40.594c-0.424,0-0.769,0.345-0.769,0.769c0,0.423,0.345,0.767,0.769,0.767s0.768-0.344,0.768-0.767
		C46.419,40.939,46.076,40.594,45.652,40.594"/>
	<path fill="#10804F" d="M42.408,39.769c0,0.236-0.048,0.463-0.135,0.668c-0.262,0.617-1.583,2.328-1.583,2.328
		s-1.322-1.711-1.583-2.328c-0.087-0.206-0.135-0.432-0.135-0.668c0-0.95,0.769-1.719,1.718-1.719
		C41.638,38.05,42.408,38.82,42.408,39.769 M40.69,38.916c-0.425,0-0.769,0.344-0.769,0.768s0.344,0.768,0.769,0.768
		c0.424,0,0.768-0.344,0.768-0.768S41.114,38.916,40.69,38.916"/>
	<path fill="#10804F" d="M39.915,33.89c0,0.238-0.048,0.463-0.135,0.669c-0.262,0.616-1.583,2.327-1.583,2.327
		s-1.322-1.711-1.583-2.327c-0.087-0.207-0.136-0.433-0.136-0.669c0-0.95,0.77-1.719,1.719-1.719S39.915,32.941,39.915,33.89
		 M38.197,33.038c-0.424,0-0.769,0.343-0.769,0.767s0.345,0.768,0.769,0.768s0.768-0.344,0.768-0.768S38.621,33.038,38.197,33.038"
		/>
	<path fill="#10804F" d="M46.602,35.748c0,0.238-0.048,0.463-0.135,0.669c-0.262,0.616-1.583,2.327-1.583,2.327
		s-1.321-1.711-1.583-2.328c-0.087-0.206-0.136-0.432-0.136-0.668c0-0.95,0.771-1.719,1.719-1.719
		C45.833,34.029,46.602,34.798,46.602,35.748 M44.884,34.894c-0.424,0-0.769,0.344-0.769,0.768s0.345,0.768,0.769,0.768
		s0.768-0.344,0.768-0.768S45.308,34.894,44.884,34.894"/>
	<path fill="#10804F" d="M53.109,36.462c0,0.238-0.048,0.464-0.135,0.669c-0.262,0.618-1.583,2.327-1.583,2.327
		s-1.322-1.709-1.583-2.327c-0.087-0.206-0.135-0.431-0.135-0.669c0-0.949,0.769-1.717,1.718-1.717
		C52.339,34.746,53.109,35.514,53.109,36.462 M51.391,35.61c-0.425,0-0.769,0.345-0.769,0.769c0,0.423,0.344,0.767,0.769,0.767
		c0.424,0,0.768-0.344,0.768-0.767C52.159,35.955,51.815,35.61,51.391,35.61"/>
	<path fill="#10804F" d="M49.39,30.351c0,0.238-0.048,0.463-0.135,0.669c-0.263,0.616-1.583,2.327-1.583,2.327
		s-1.322-1.711-1.583-2.328c-0.087-0.206-0.135-0.432-0.135-0.668c0-0.95,0.769-1.719,1.718-1.719
		C48.621,28.632,49.39,29.402,49.39,30.351 M47.672,29.498c-0.425,0-0.769,0.344-0.769,0.768s0.344,0.768,0.769,0.768
		c0.424,0,0.767-0.344,0.767-0.768S48.096,29.498,47.672,29.498"/>
	<path fill="#10804F" d="M43.515,27.433c0,0.236-0.049,0.463-0.136,0.668c-0.262,0.617-1.583,2.328-1.583,2.328
		s-1.321-1.711-1.582-2.328c-0.087-0.206-0.137-0.432-0.137-0.668c0-0.95,0.771-1.719,1.719-1.719
		C42.746,25.714,43.515,26.484,43.515,27.433 M41.796,26.58c-0.424,0-0.768,0.344-0.768,0.768s0.344,0.768,0.768,0.768
		c0.425,0,0.768-0.344,0.768-0.768S42.221,26.58,41.796,26.58"/>
	<path fill="#10804F" d="M51.558,24.408c0,0.236-0.048,0.462-0.136,0.668c-0.262,0.617-1.582,2.328-1.582,2.328
		s-1.322-1.711-1.583-2.328c-0.087-0.206-0.137-0.432-0.137-0.668c0-0.95,0.771-1.719,1.72-1.719
		C50.789,22.689,51.558,23.458,51.558,24.408 M49.84,23.554c-0.425,0-0.769,0.344-0.769,0.768s0.344,0.767,0.769,0.767
		c0.424,0,0.767-0.343,0.767-0.767S50.264,23.554,49.84,23.554"/>
	<path fill="#10804F" d="M47.622,20.236c0,0.238-0.049,0.464-0.136,0.669c-0.262,0.616-1.583,2.327-1.583,2.327
		s-1.321-1.711-1.582-2.327c-0.087-0.206-0.136-0.431-0.136-0.669c0-0.949,0.77-1.717,1.718-1.717S47.622,19.288,47.622,20.236
		 M45.903,19.383c-0.425,0-0.768,0.345-0.768,0.769c0,0.423,0.343,0.767,0.768,0.767s0.768-0.344,0.768-0.767
		C46.67,19.728,46.328,19.383,45.903,19.383"/>
	<path fill="#10804F" d="M53.443,17.156c0,0.236-0.048,0.463-0.135,0.668c-0.263,0.617-1.583,2.328-1.583,2.328
		s-1.322-1.711-1.583-2.328c-0.087-0.206-0.135-0.432-0.135-0.668c0-0.95,0.769-1.719,1.718-1.719
		C52.673,15.437,53.443,16.207,53.443,17.156 M51.725,16.302c-0.425,0-0.769,0.344-0.769,0.768s0.344,0.768,0.769,0.768
		c0.424,0,0.768-0.344,0.768-0.768S52.149,16.302,51.725,16.302"/>
	<path fill="#10804F" d="M59.873,23.021c0,0.236-0.048,0.462-0.135,0.668c-0.262,0.617-1.583,2.326-1.583,2.326
		s-1.321-1.709-1.583-2.327c-0.087-0.206-0.135-0.431-0.135-0.669c0-0.949,0.769-1.717,1.718-1.717
		C59.103,21.302,59.873,22.071,59.873,23.021 M58.155,22.167c-0.425,0-0.769,0.345-0.769,0.769c0,0.423,0.344,0.767,0.769,0.767
		c0.424,0,0.768-0.344,0.768-0.767C58.922,22.511,58.579,22.167,58.155,22.167"/>
	<path fill="#10804F" d="M55.936,30.599c0,0.238-0.048,0.464-0.135,0.669c-0.262,0.618-1.583,2.327-1.583,2.327
		s-1.322-1.709-1.583-2.327c-0.087-0.206-0.136-0.431-0.136-0.669c0-0.949,0.77-1.717,1.719-1.717S55.936,29.651,55.936,30.599
		 M54.218,29.747c-0.424,0-0.769,0.345-0.769,0.769c0,0.423,0.345,0.767,0.769,0.767s0.768-0.344,0.768-0.767
		C54.986,30.091,54.642,29.747,54.218,29.747"/>
</g>
</svg>
