<?xml version="1.0" encoding="utf-8"?>
<!-- Generator: Adobe Illustrator 16.0.0, SVG Export Plug-In . SVG Version: 6.00 Build 0)  -->
<!DOCTYPE svg PUBLIC "-//W3C//DTD SVG 1.1//EN" "http://www.w3.org/Graphics/SVG/1.1/DTD/svg11.dtd">
<svg version="1.1" id="Layer_1" xmlns="http://www.w3.org/2000/svg" xmlns:xlink="http://www.w3.org/1999/xlink" x="0px" y="0px"
	 width="70px" height="70px" viewBox="0 0 70 70" enable-background="new 0 0 70 70" xml:space="preserve">
<g>
	<path fill="#10804F" d="M44.334,37.305c-1.095-1.43-10.685-14.132-10.685-20.056c0-6.31,5.132-11.443,11.443-11.443
		c6.309,0,11.44,5.133,11.44,11.443c0,4.83-6.716,14.88-10.683,20.056l-0.758,0.988L44.334,37.305z M45.093,7.717
		c-5.257,0-9.531,4.275-9.531,9.532c0,4.644,7.736,15.435,9.286,17.55l0.245,0.335l0.243-0.334
		c1.551-2.117,9.285-12.913,9.285-17.551C54.621,11.992,50.348,7.717,45.093,7.717"/>
	<path fill="#10804F" d="M45.093,21.199c-2.181,0-3.952-1.772-3.952-3.95c0-2.18,1.771-3.953,3.952-3.953
		c2.179,0,3.95,1.773,3.95,3.953C49.043,19.427,47.271,21.199,45.093,21.199 M45.093,15.208c-1.126,0-2.042,0.915-2.042,2.041
		c0,1.124,0.916,2.039,2.042,2.039c1.124,0,2.039-0.915,2.039-2.039C47.132,16.123,46.217,15.208,45.093,15.208"/>
	<path fill="#10804F" d="M37.226,64.194c-10.502,0-19.906-6.279-23.96-15.994l-0.067-0.164l-0.179-0.02
		c-2.517-0.279-5.63-1.092-6.16-3.387c-0.123-0.533,0.067-1.213,0.548-1.967c0.303-0.475,1.465-2.088,3.7-2.893l0.212-0.074
		l-0.012-0.223c-0.02-0.439-0.03-0.842-0.03-1.229c0-11.535,7.738-21.797,18.817-24.958c0.088-0.024,0.177-0.037,0.265-0.037
		c0.425,0,0.801,0.285,0.917,0.693c0.145,0.508-0.15,1.039-0.656,1.183c-10.265,2.927-17.434,12.434-17.434,23.12
		c0,2.645,0.438,5.26,1.296,7.771l0.067,0.195l0.208,0.008c0.371,0.014,0.758,0.023,1.161,0.023c2.991,0,6.394-0.424,9.842-1.221
		c3.253-0.752,6.341-1.787,8.934-2.996l0.454-0.215l-4.97-3.773c-0.203-0.154-0.335-0.377-0.369-0.631
		c-0.033-0.254,0.032-0.504,0.188-0.709c0.181-0.24,0.46-0.377,0.762-0.377c0.209,0,0.408,0.068,0.577,0.196l5.771,4.382
		l0.062,0.016c0.067,0.018,0.129,0.041,0.188,0.068c0.473,0.225,0.677,0.795,0.45,1.271l-3.006,6.338
		c-0.157,0.332-0.496,0.547-0.864,0.547c-0.142,0-0.279-0.033-0.406-0.094c-0.477-0.225-0.681-0.797-0.455-1.271l1.758-3.705
		l-0.729,0.305c-2.395,1-5.131,1.869-7.912,2.51c-3.578,0.828-7.24,1.283-10.314,1.283h-0.515l0.18,0.451
		c3.976,8.295,12.49,13.664,21.682,13.664c13.255,0,24.039-10.783,24.039-24.037c0-4.996-1.517-9.784-4.388-13.847
		c-0.301-0.432-0.199-1.03,0.229-1.333c0.164-0.117,0.354-0.176,0.551-0.176c0.313,0,0.604,0.151,0.783,0.405
		c3.1,4.39,4.737,9.56,4.737,14.951C63.177,52.553,51.536,64.194,37.226,64.194 M8.781,44.377c0.303,0.699,1.413,1.24,3.208,1.561
		l0.481,0.088l-0.137-0.471c-0.342-1.158-0.602-2.33-0.772-3.482l-0.061-0.414l-0.374,0.188c-1.355,0.684-2.162,1.779-2.354,2.309
		l-0.041,0.113L8.781,44.377z"/>
</g>
</svg>
